<svg data-name="Layer 2" xmlns="http://www.w3.org/2000/svg" viewBox="0 0 554.075 123.729"><title>logo_authy_vector</title><g fill="#ec1c24"><path d="M178.215 66.762h17.634l-8.79-17.63-8.845 17.63"/><path d="M531.026 0H23.05A23.05 23.05 0 0 0 0 23.05v77.63a23.048 23.048 0 0 0 23.05 23.05h507.975a23.048 23.048 0 0 0 23.05-23.05V23.05A23.048 23.048 0 0 0 531.024 0zM67.5 99.625a6.126 6.126 0 0 1-8.666 0L42.27 83.065a30.96 30.96 0 0 1-.6-43.104c.094-.11.188-.218.294-.324.05-.05.1-.1.157-.146s.1-.106.15-.158c.1-.1.214-.2.325-.3a30.958 30.958 0 0 1 43.1.6L102.26 56.2a6.13 6.13 0 0 1-8.67 8.67L77.03 48.308A18.45 18.45 0 1 0 50.94 74.4L67.5 90.958a6.127 6.127 0 0 1 0 8.667zm56.734-13.708c-.095.11-.187.22-.29.327-.053.05-.11.1-.16.15s-.1.1-.15.155c-.1.106-.215.2-.326.3a30.955 30.955 0 0 1-43.1-.6l-16.56-16.56a6.132 6.132 0 0 1 8.67-8.673l16.555 16.556a18.45 18.45 0 1 0 26.092-26.092L98.4 34.92a6.13 6.13 0 1 1 8.67-8.665l16.558 16.56a30.952 30.952 0 0 1 .603 43.102zm87.672-1.617a4.3 4.3 0 0 1-3.754 2 3.9 3.9 0 0 1-3.615-2.158l-5.1-10.128H174.68l-5.316 10.366a3.618 3.618 0 0 1-3.34 2.02 4.395 4.395 0 0 1-3.637-1.9 3.45 3.45 0 0 1-.212-3.384l.03-.058L183.47 39.16a4.036 4.036 0 0 1 7.09-.05l21.2 41.7a3.387 3.387 0 0 1 .146 3.49zm74.718-19.72c0 14.294-11.165 21.77-22.2 21.77s-22.192-7.476-22.192-21.77V41.4a3.756 3.756 0 0 1 4.027-3.725 3.826 3.826 0 0 1 4.076 3.8V64.58c0 9.523 7.3 13.863 14.088 13.863S278.52 74.1 278.52 64.58V41.47a3.96 3.96 0 0 1 4.072-4.01 3.91 3.91 0 0 1 4.032 3.94v23.18zm71.653-18.742h-14.3c0 5.876.02 11.8.033 17.717.02 6.394.04 12.79.04 19.135a4.015 4.015 0 0 1-4.087 4.014 3.9 3.9 0 0 1-3.95-4.014V45.838h-14.232a3.84 3.84 0 1 1 0-7.68h36.5a3.844 3.844 0 1 1-.003 7.68zM432.542 82.4a3.983 3.983 0 1 1-7.96 0V66.41H401.47V82.4a3.79 3.79 0 0 1-3.832 4 4.14 4.14 0 0 1-2.74-1.02 3.9 3.9 0 0 1-1.316-2.98V41.33a3.775 3.775 0 0 1 3.885-3.92 3.882 3.882 0 0 1 4 3.92v17.823h23.11V41.33a3.98 3.98 0 0 1 7.96 0V82.4zm76.085-39.04l-.055.08-17.4 23.37v15.313a3.938 3.938 0 0 1-4.02 4.02 3.842 3.842 0 0 1-4.014-4.02v-15.31l-17.545-23.226a3.57 3.57 0 0 1-.46-3.834 4.286 4.286 0 0 1 3.79-2.245 4.05 4.05 0 0 1 3.383 1.812l14.78 20.2 14.974-20.27a3.94 3.94 0 0 1 3.31-1.793 4.04 4.04 0 0 1 3.526 2.024 3.723 3.723 0 0 1-.27 3.88z"/></g></svg>