<svg width="880" height="296" viewBox="0 0 880 296" xmlns="http://www.w3.org/2000/svg" xmlns:xlink="http://www.w3.org/1999/xlink"><title>Page 1</title><defs><path id="a" d="M0 0h959v379H0z"/></defs><g transform="translate(-15 -83)" fill="none" fill-rule="evenodd"><mask id="b" fill="#fff"><use xlink:href="#a"/></mask><g mask="url(#b)"><path d="M1137.031 820.12c-79.565-44.496-240.94-205.31-242.005-412.5-1.066-207.188-178.31-172.201-332.9-123.355-154.59 48.846-231.263-114.42-371.683-60.557-198.608 76.184 82.6 679.627 82.6 679.627" stroke="#5262FC"/><path d="M1142.874 817.572c-80.888-62.974-259.367-223.856-266.63-419.447-6.947-187.04-162.493-173.403-302.336-138.397-139.203 34.848-218.117-114.192-344.449-42.053-93.629 53.464-119.772 106.917-112.728 226.182 4.93 83.507 56.554 178.445 84.505 260.678 35.499 104.436 59.831 199.668 59.831 199.668" stroke="#4B70FC"/><path d="M1148.719 815.023c-82.21-81.452-277.548-242.27-291.258-426.395-12.423-166.805-146.58-174.571-271.772-153.437-123.725 20.89-202.739-106.732-317.213-23.55-110.567 80.34-158.622 76.379-166.368 192.46-5.764 86.414 70.698 188.904 99.808 279.796 34.266 106.987 47.177 221.171 47.177 221.171" stroke="#4480FC"/><path d="M1154.562 812.473c-83.533-99.93-295.364-260.572-315.885-433.342-17.401-146.503-130.547-175.66-241.207-168.476-108.128 7.021-185.42-95.969-289.979-5.047-126.14 109.687-198.467 46.034-220.003 158.736-17.102 89.488 84.944 199.327 115.11 298.911 33.168 109.494 34.52 242.68 34.52 242.68" stroke="#3E8FFA"/><path d="M1160.407 809.924c-84.855-118.408-312.643-278.812-340.512-440.29-21.777-126.182-114.377-176.574-210.644-183.516-92.404-6.662-166.617-83.753-262.744 13.455-139.596 141.17-239.181 15.57-273.64 125.015-29.112 92.462 99.287 209.719 130.413 318.03 32.177 111.964 21.863 264.183 21.863 264.183" stroke="#36A6FB"/><path d="M1166.25 807.374c-86.176-136.885-329.1-297.122-365.137-447.236-25.432-105.934-98.133-177.151-180.08-198.555-76.611-20.01-146.658-71.002-235.509 31.957-150.547 174.452-280.544-15.251-327.28 91.29-41.727 95.126 113.724 220.09 145.716 337.147 31.272 114.419 9.208 285.691 9.208 285.691" stroke="#33AEFB"/><path d="M1172.094 804.824c-87.499-155.362-344.27-315.82-389.764-454.182-28.256-85.937-82.072-177.222-149.517-213.597-60.986-32.888-125.766-58.206-208.274 50.461-158.832 209.192-322.298-46.543-380.914 57.568-54.81 97.345 128.247 230.438 161.017 356.264 30.433 116.855-3.448 307.196-3.448 307.196" stroke="#2BBCFD"/><path d="M1177.939 802.275c-88.823-173.84-357.395-335.645-414.391-461.13C706.773 216.146 628.02-63.562 463.556 181.473 299.092 426.507 99.323 103.145 29.003 205.316-39.187 304.393 171.86 446.09 205.323 580.7 234.978 699.983 189.22 909.4 189.22 909.4" stroke="#24CCFD"/></g></g></svg>