<?xml version="1.0" encoding="utf-8"?>
<!-- Generator: Adobe Illustrator 22.1.0, SVG Export Plug-In . SVG Version: 6.00 Build 0)  -->
<svg version="1.1" id="Layer_1" xmlns="http://www.w3.org/2000/svg" xmlns:xlink="http://www.w3.org/1999/xlink" x="0px" y="0px"
	 width="880px" height="296px" viewBox="0 0 880 296" style="enable-background:new 0 0 880 296;" xml:space="preserve">
<style type="text/css">
	.st0{filter:url(#Adobe_OpacityMaskFilter);}
	.st1{fill:#FFFFFF;}
	.st2{mask:url(#b_1_);}
	.st3{fill:none;stroke:#F8F9FB;}
</style>
<title>Page 1</title>
<g transform="translate(-15 -83)">
	<defs>
		<filter id="Adobe_OpacityMaskFilter" filterUnits="userSpaceOnUse" x="15" y="83.6" width="1163.4" height="825.9">
			<feColorMatrix  type="matrix" values="1 0 0 0 0  0 1 0 0 0  0 0 1 0 0  0 0 0 1 0"/>
		</filter>
	</defs>
	<mask maskUnits="userSpaceOnUse" x="15" y="83.6" width="1163.4" height="825.9" id="b_1_">
		<g class="st0">
			<path id="a_1_" class="st1" d="M0,0h959v379H0V0z"/>
		</g>
	</mask>
	<g class="st2">
		<path class="st3" d="M1137,820.1c-79.6-44.5-240.9-205.3-242-412.5C894,200.4,716.7,235.4,562.1,284.3s-231.3-114.4-371.7-60.6
			C-8.2,299.9,273,903.3,273,903.3"/>
		<path class="st3" d="M1142.9,817.6c-80.9-63-259.4-223.9-266.6-419.4c-6.9-187-162.5-173.4-302.3-138.4
			c-139.2,34.8-218.1-114.2-344.4-42.1c-93.6,53.5-119.8,106.9-112.7,226.2c4.9,83.5,56.6,178.4,84.5,260.7
			c35.5,104.4,59.8,199.7,59.8,199.7"/>
		<path class="st3" d="M1148.7,815c-82.2-81.5-277.5-242.3-291.3-426.4C845,221.8,710.9,214.1,585.7,235.2
			C462,256.1,382.9,128.5,268.5,211.6C157.9,292,109.9,288,102.1,404.1c-5.8,86.4,70.7,188.9,99.8,279.8
			c34.3,107,47.2,221.2,47.2,221.2"/>
		<path class="st3" d="M1154.6,812.5c-83.5-99.9-295.4-260.6-315.9-433.3c-17.4-146.5-130.5-175.7-241.2-168.5
			c-108.1,7-185.4-96-290-5c-126.1,109.7-198.5,46-220,158.7c-17.1,89.5,84.9,199.3,115.1,298.9c33.2,109.5,34.5,242.7,34.5,242.7"
			/>
		<path class="st3" d="M1160.4,809.9c-84.9-118.4-312.6-278.8-340.5-440.3c-21.8-126.2-114.4-176.6-210.6-183.5
			c-92.4-6.7-166.6-83.8-262.7,13.5c-139.6,141.2-239.2,15.6-273.6,125c-29.1,92.5,99.3,209.7,130.4,318
			c32.2,112,21.9,264.2,21.9,264.2"/>
		<path class="st3" d="M1166.2,807.4c-86.2-136.9-329.1-297.1-365.1-447.2C775.7,254.2,703,183,621,161.6
			c-76.6-20-146.7-71-235.5,32C235,368,105,178.3,58.2,284.8C16.5,380,172,504.9,204,622c31.3,114.4,9.2,285.7,9.2,285.7"/>
		<path class="st3" d="M1172.1,804.8C1084.6,649.5,827.8,489,782.3,350.6c-28.3-85.9-82.1-177.2-149.5-213.6
			c-61-32.9-125.8-58.2-208.3,50.5C265.7,396.7,102.2,141,43.6,245.1c-54.8,97.3,128.2,230.4,161,356.3
			c30.4,116.9-3.4,307.2-3.4,307.2"/>
		<path class="st3" d="M1177.9,802.3c-88.8-173.8-357.4-335.6-414.4-461.1c-56.8-125-135.5-404.7-300-159.7
			C299.1,426.5,99.3,103.1,29,205.3c-68.2,99.1,142.9,240.8,176.3,375.4C235,700,189.2,909.4,189.2,909.4"/>
	</g>
</g>
</svg>
