<?xml version="1.0" encoding="utf-8"?>
<!-- Generator: Adobe Illustrator 22.1.0, SVG Export Plug-In . SVG Version: 6.00 Build 0)  -->
<svg version="1.1" id="Layer_1" xmlns="http://www.w3.org/2000/svg" xmlns:xlink="http://www.w3.org/1999/xlink" x="0px" y="0px"
	 width="1797px" height="1110px" viewBox="0 0 1797 1110" style="enable-background:new 0 0 1797 1110;" xml:space="preserve">
<style type="text/css">
	.st0{fill:none;stroke:#24CCFD;stroke-width:2;}
</style>
<title>Group 7</title>
<g>
	<path class="st0" d="M428,501.7c-17.3,0-33-1.7-50-5.1c-33.4-6.7-66.1-16.9-97.5-30.1c-44.1-18.6-85.6-43.4-122.1-74.3
		C113.3,354,76.7,306.5,50.7,253.5C17,184.6,1.4,108.1-2,31.9C-2.5,20.3-2.8,8.6-2.8-3"/>
	<path class="st0" d="M419,507c-15,0-29.8-2.5-44.6-5.3c-33.4-6.3-66.3-15.8-98-28.2c-43.2-16.9-84.4-39.4-121-68
		c-43.5-34-80-76.7-106-125.5C16.8,218.7,1.3,149.8-2.1,80.8c-0.5-10.1-0.7-20.3-0.7-30.4"/>
	<path class="st0" d="M423,512.3c-15.7,0-30.9-1.8-46.5-4.4c-33.2-5.5-66-13.8-97.8-24.7c-42.9-14.8-84.2-34.5-121.5-60.4
		c-42.8-29.6-80-67.4-106.9-112C17.7,256.6,1.4,194.4-2,131.6c-0.5-9.3-0.8-18.5-0.8-27.8"/>
	<path class="st0" d="M433,517.7c-17.4,0-33.6-0.7-50.8-3.1c-32.4-4.4-64.5-11.3-95.9-20.4c-43.2-12.6-85.4-29.6-124.2-52.6
		c-42.7-25.3-81.2-58.1-109.7-98.9C19.3,295.6,1.6,239.6-2,182.2c-0.5-8.3-0.8-16.7-0.8-25"/>
	<path class="st0" d="M421,523c-15,0-29.8-1.5-44.7-3.4c-32.9-4.2-65.5-10.4-97.6-18.9c-42.2-11.1-83.6-26-122.2-46.5
		c-40.4-21.5-78-49.5-106.4-85.6C19.2,329.2,1.5,281.7-2,231.9c-0.5-7.1-0.8-14.2-0.8-21.3"/>
	<path class="st0" d="M427,528.3c-15.8,0-31.3-0.9-47-2.5c-32.6-3.3-65.1-8.5-97.1-15.5c-42-9.1-83.5-21.4-122.8-38.7
		c-40-17.6-78.7-40.8-108.8-72.8C21,366.7,1.8,326.2-2,282.1c-0.5-6.1-0.8-12.1-0.8-18.2"/>
	<path class="st0" d="M418,533.6c-47,0-94.9-7.2-141-15.7c-41.2-7.6-82.1-17.7-121.4-32.2c-37.9-14-75.5-32.3-105.9-59.3
		c-31.7-28.1-52.4-66-52.4-109"/>
	<path class="st0" d="M422,538.9c-47.3,0-94.9-5.2-141.6-11.8c-41.2-5.8-82.2-13.5-122.2-24.8c-37.3-10.6-75.1-24.2-107.4-46.1
		c-29.1-19.8-53.6-48.6-53.6-85.5"/>
	<path class="st0" d="M439,544.2c-48.5,0-96.8-2.6-145.1-7.1c-42.2-3.9-84.4-9.2-126-17.1c-38.5-7.4-77.7-16.5-113.5-33.1
		C29.3,475.2-2.8,455.6-2.8,424"/>
	<path class="st0" d="M419,549.6c-46.8,0-93.7-2.3-140.4-5.2c-40.8-2.5-81.7-5.8-122.3-10.8c-35.5-4.4-71.5-9.6-105.9-19.6
		c-16-4.7-53.2-14.3-53.2-36.5"/>
	<path class="st0" d="M423,554.9c-47.2,0-94.4-0.7-141.6-1.7c-76.7-1.5-153.9-2.7-230.3-10.1c-13-1.3-26.2-2.6-39-5.4
		c-2.9-0.6-14.8-2.3-14.8-6.9"/>
	<path class="st0" d="M416,560.2c-46.6,0-93.3,0.8-139.9,1.8c-75.5,1.6-151.4,2.8-226.6,10.2c-12.6,1.2-25.4,2.6-37.8,5.3
		c-2.8,0.6-14.5,2.3-14.5,6.8"/>
	<path class="st0" d="M426,565.5c-47.4,0-94.9,2-142.2,4.8c-41.2,2.4-82.4,5.7-123.4,10.6c-36.6,4.4-73.5,9.6-109,19.9
		c-13.5,3.9-27.5,8.5-39.4,16.3c-7.1,4.6-14.7,11.4-14.7,20.6"/>
	<path class="st0" d="M419,570.8c-46.9,0-94.1,3.9-140.7,8.6c-41,4.2-81.9,9.7-122.3,18c-36,7.4-72.6,16.6-105.8,32.8
		c-23.9,11.7-53,30.9-53,60.8"/>
	<path class="st0" d="M430,576.2c-48,0-96,4.5-143.5,10.9c-41.9,5.7-83.7,13.3-124.5,24.6c-38,10.5-76.4,24-109.4,45.9
		c-29.9,19.9-55.4,49-55.4,86.7"/>
	<path class="st0" d="M415,581.5c-14.1,0-28.3,1.4-42.3,2.7c-32.9,3-65.7,7.4-98.1,13.5c-40.8,7.6-81.3,17.7-120.2,32.3
		c-37.9,14-75.4,32.5-105.6,59.6c-31.3,28-51.6,65.6-51.6,108.2"/>
	<path class="st0" d="M419,586.8c-14.6,0-29.1,1.4-43.5,3c-33,3.6-65.8,8.9-98.2,16.2c-41.5,9.3-82.5,21.8-121.3,39.3
		c-39.1,17.6-76.7,40.7-106,72.4C20.4,749.6,1.7,789.6-2,833c-0.5,6.1-0.8,12.1-0.8,18.2"/>
	<path class="st0" d="M424,592.1c-15.5,0-30.6,1.3-46.1,3.2c-32.9,4.1-65.5,10.3-97.6,18.7c-42.1,11-83.5,25.8-122.1,46.1
		c-40.9,21.5-78.9,49.6-107.7,86C19.4,785.5,1.6,833.2-2,883.2c-0.5,7.1-0.8,14.2-0.8,21.3"/>
	<path class="st0" d="M416,597.4c-14.3,0-28.7,2.3-42.8,4.4c-33.2,5-66,12.5-98.1,22.4c-42.2,13.1-83.3,30.7-120.9,54
		c-41,25.5-77.7,58.3-104.8,98.4C18,823.2,1.4,877.8-2,933.6c-0.5,8-0.7,16.1-0.7,24.2"/>
	<path class="st0" d="M422,602.7c-15.5,0-30.5,1.9-45.8,4.5c-33.3,5.5-66.1,13.8-97.9,24.8c-42.9,14.8-84.2,34.7-121.5,60.5
		C114,722.2,76.9,760.1,50,804.8c-32.4,54-48.6,116-52,178.6c-0.5,9.3-0.8,18.5-0.8,27.8"/>
	<path class="st0" d="M426,608.1c-16.6,0-32.1,1.7-48.4,4.7c-33.2,6-65.9,15.1-97.5,27.1c-43.6,16.6-85.3,38.8-122.3,67.3
		c-44,33.8-80.9,76.4-107.3,125.2C17.2,893.8,1.4,962.9-2,1032.3c-0.5,10.5-0.8,20.9-0.8,31.4"/>
	<path class="st0" d="M420,613.4c-15.4,0-30.4,2.6-45.5,5.7c-33.7,6.8-66.7,17.2-98.3,30.8c-43.7,18.7-84.9,43.6-120.9,74.6
		c-44.2,38-80.1,85-105.5,137.5C16.5,930.5,1.3,1006.5-2,1082.3c-0.5,11.3-0.7,22.6-0.7,33.9"/>
</g>
<g>
	<path class="st0" d="M1806-3c0,11.6-0.3,23.3-0.8,34.9c-3.5,76.2-19,152.7-52.7,221.5c-26,53.1-62.6,100.5-107.7,138.7
		c-36.5,31-78,55.8-122.1,74.3c-31.4,13.2-64.1,23.4-97.5,30.1c-17,3.4-32.7,5.1-50,5.1"/>
	<path class="st0" d="M1806,50.4c0,10.1-0.2,20.3-0.7,30.4c-3.3,69-18.8,137.9-51.5,199.1c-26,48.8-62.4,91.5-106,125.5
		c-36.6,28.6-77.8,51.1-121,68c-31.7,12.4-64.6,21.9-98,28.2c-14.7,2.8-29.6,5.3-44.6,5.3"/>
	<path class="st0" d="M1806,103.8c0,9.3-0.2,18.5-0.8,27.8c-3.5,62.8-19.8,125.1-52.4,179.2c-26.9,44.7-64.1,82.4-106.9,112
		c-37.3,25.8-78.6,45.6-121.5,60.4c-31.8,11-64.6,19.3-97.8,24.7c-15.6,2.6-30.7,4.4-46.5,4.4"/>
	<path class="st0" d="M1806,157.2c0,8.3-0.3,16.7-0.8,25c-3.7,57.4-21.3,113.3-54.4,160.6c-28.6,40.8-67.1,73.6-109.7,98.9
		c-38.8,23-80.9,40-124.2,52.6c-31.4,9.1-63.5,16-95.9,20.4c-17.2,2.3-33.4,3.1-50.8,3.1"/>
	<path class="st0" d="M1806,210.6c0,7.1-0.2,14.2-0.8,21.3c-3.6,49.8-21.3,97.4-52.2,136.7c-28.4,36.2-66,64.2-106.4,85.6
		c-38.6,20.5-80,35.4-122.2,46.5c-32,8.4-64.7,14.7-97.6,18.9c-14.9,1.9-29.7,3.4-44.7,3.4"/>
	<path class="st0" d="M1806,263.9c0,6.1-0.3,12.1-0.8,18.2c-3.8,44.1-23,84.6-53.2,116.7s-68.8,55.2-108.8,72.8
		c-39.4,17.3-80.8,29.6-122.8,38.7c-32,7-64.5,12.1-97.1,15.5c-15.8,1.6-31.2,2.5-47,2.5"/>
	<path class="st0" d="M1806,317.3c0,43-20.7,80.9-52.4,109c-30.5,27-68,45.3-105.9,59.3c-39.3,14.5-80.2,24.7-121.4,32.2
		c-46.1,8.5-94,15.7-141,15.7"/>
	<path class="st0" d="M1806,370.7c0,36.9-24.5,65.7-53.6,85.5c-32.3,22-70,35.5-107.4,46.1c-40,11.3-81.1,19-122.2,24.8
		c-46.7,6.6-94.4,11.8-141.6,11.8"/>
	<path class="st0" d="M1806,424c0,31.6-32.1,51.2-57.3,62.9c-35.7,16.6-74.9,25.8-113.5,33.1c-41.7,7.9-83.8,13.2-126,17.1
		c-48.3,4.5-96.6,7.1-145.1,7.1"/>
	<path class="st0" d="M1806,477.5c0,22.2-37.2,31.8-53.2,36.5c-34.4,10.1-70.3,15.3-105.9,19.6c-40.6,5-81.5,8.3-122.3,10.8
		c-46.7,2.8-93.6,5.2-140.4,5.2"/>
	<path class="st0" d="M1806,530.9c0,4.6-11.9,6.2-14.8,6.9c-12.8,2.8-26,4.1-39,5.4c-76.4,7.4-153.6,8.6-230.3,10.1
		c-47.2,0.9-94.4,1.7-141.6,1.7"/>
	<path class="st0" d="M1806,584.2c0-4.5-11.7-6.2-14.5-6.8c-12.4-2.7-25.2-4-37.8-5.3c-75.2-7.4-151.1-8.6-226.6-10.2
		c-46.6-1-93.3-1.8-139.9-1.8"/>
	<path class="st0" d="M1806,637.6c0-9.2-7.7-16-14.7-20.6c-11.9-7.7-25.9-12.3-39.4-16.3c-35.4-10.3-72.4-15.5-109-19.9
		c-41-4.9-82.2-8.1-123.4-10.6c-47.3-2.8-94.8-4.8-142.2-4.8"/>
	<path class="st0" d="M1806,691c0-29.9-29.1-49.1-53-60.8c-33.2-16.2-69.8-25.4-105.8-32.8c-40.4-8.3-81.3-13.8-122.3-18
		c-46.6-4.7-93.8-8.6-140.7-8.6"/>
	<path class="st0" d="M1806,744.4c0-37.7-25.5-66.9-55.4-86.7c-33-21.9-71.4-35.4-109.4-45.9c-40.8-11.3-82.6-18.9-124.5-24.6
		c-47.5-6.4-95.5-10.9-143.5-10.9"/>
	<path class="st0" d="M1806,797.8c0-42.6-20.3-80.2-51.6-108.2c-30.3-27.1-67.7-45.6-105.6-59.7c-38.9-14.5-79.4-24.6-120.2-32.3
		c-32.5-6.1-65.2-10.5-98.1-13.5c-14-1.3-28.2-2.7-42.3-2.7"/>
	<path class="st0" d="M1806,851.2c0-6.1-0.2-12.1-0.8-18.2c-3.8-43.4-22.4-83.4-52-115.3c-29.3-31.6-66.9-54.7-106-72.4
		c-38.8-17.5-79.8-30-121.3-39.3c-32.4-7.3-65.2-12.7-98.2-16.2c-14.5-1.6-29-3-43.5-3"/>
	<path class="st0" d="M1806,904.5c0-7.1-0.2-14.2-0.8-21.3c-3.6-50-21.4-97.8-52.5-137.2c-28.8-36.4-66.8-64.5-107.7-86
		c-38.6-20.3-80-35.1-122.1-46.1c-32.1-8.4-64.7-14.6-97.6-18.7c-15.4-1.9-30.5-3.2-46.1-3.2"/>
	<path class="st0" d="M1806,957.9c0-8.1-0.2-16.1-0.7-24.2c-3.4-55.9-20-110.5-51.4-157c-27.1-40.2-63.8-72.9-104.8-98.4
		c-37.6-23.4-78.7-40.9-120.9-54c-32-10-64.9-17.4-98.1-22.4c-14.1-2.1-28.5-4.4-42.8-4.4"/>
	<path class="st0" d="M1806,1011.2c0-9.3-0.2-18.5-0.8-27.8c-3.4-62.6-19.6-124.6-52-178.6c-26.9-44.8-64-82.6-106.8-112.3
		c-37.3-25.9-78.6-45.7-121.5-60.5c-31.9-11-64.7-19.3-97.9-24.8c-15.3-2.5-30.3-4.5-45.8-4.5"/>
	<path class="st0" d="M1806,1063.7c0-10.5-0.2-20.9-0.8-31.4c-3.5-69.4-19.3-138.6-52.5-199.9c-26.4-48.9-63.3-91.4-107.3-125.2
		c-37.1-28.5-78.7-50.7-122.3-67.3c-31.6-12-64.3-21.1-97.5-27.1c-16.3-2.9-31.9-4.7-48.4-4.7"/>
	<path class="st0" d="M1806,1116.1c0-11.3-0.2-22.6-0.7-33.9c-3.3-75.8-18.5-151.8-51.8-220.3c-25.5-52.4-61.3-99.5-105.5-137.5
		c-36.1-31-77.2-55.9-120.9-74.6c-31.6-13.5-64.6-23.9-98.3-30.8c-15.1-3.1-30.1-5.7-45.5-5.7"/>
</g>
</svg>
