<?xml version="1.0" encoding="utf-8"?>
<!-- Generator: Adobe Illustrator 22.1.0, SVG Export Plug-In . SVG Version: 6.00 Build 0)  -->
<svg version="1.1" id="Layer_1" xmlns="http://www.w3.org/2000/svg" xmlns:xlink="http://www.w3.org/1999/xlink" x="0px" y="0px"
	 width="64px" height="64px" viewBox="0 0 64 64" style="enable-background:new 0 0 64 64;" xml:space="preserve">
<style type="text/css">
	.st0{fill:none;}
	.st1{fill:url(#SVGID_1_);}
	.st2{fill:#4582EC;}
	.st3{fill:#98CCFD;}
	.st4{fill:#B6DCFE;}
	.st5{fill:#FFFFFF;}
	.st6{fill:none;stroke:#4582EC;stroke-linecap:round;stroke-miterlimit:10;}
</style>
<g>
	<path class="st0" d="M0,64V0h64v64H0z"/>
	<g>
		<g id="surface1">
			<linearGradient id="SVGID_1_" gradientUnits="userSpaceOnUse" x1="5.7391" y1="5.739" x2="58.2609" y2="58.2609">
				<stop  offset="0" style="stop-color:#FFFFFF"/>
				<stop  offset="1" style="stop-color:#DFF0FE"/>
			</linearGradient>
			<path class="st1" d="M5.6,56.8c-1.8,0-3.2-1.4-3.2-3.2V10.4c0-1.8,1.4-3.2,3.2-3.2h52.8c1.8,0,3.2,1.4,3.2,3.2v43.2
				c0,1.8-1.4,3.2-3.2,3.2H5.6z"/>
			<path class="st2" d="M58.4,8c1.3,0,2.4,1.1,2.4,2.4v43.2c0,1.3-1.1,2.4-2.4,2.4H5.6c-1.3,0-2.4-1.1-2.4-2.4V10.4
				C3.2,9.1,4.3,8,5.6,8L58.4,8 M58.4,6.4H5.6c-2.2,0-4,1.8-4,4v43.2c0,2.2,1.8,4,4,4h52.8c2.2,0,4-1.8,4-4V10.4
				C62.4,8.2,60.6,6.4,58.4,6.4z"/>
			<path class="st3" d="M38.4,47.2c-8.4,0-15.2-6.8-15.2-15.2S30,16.8,38.4,16.8S53.6,23.6,53.6,32S46.8,47.2,38.4,47.2z"/>
			<path class="st2" d="M38.4,17.6c7.9,0,14.4,6.5,14.4,14.4s-6.5,14.4-14.4,14.4S24,39.9,24,32S30.5,17.6,38.4,17.6 M38.4,16
				c-8.8,0-16,7.2-16,16s7.2,16,16,16s16-7.2,16-16S47.2,16,38.4,16z"/>
			<path class="st4" d="M47.2,32c0,4.9-3.9,8.8-8.8,8.8s-8.8-3.9-8.8-8.8c0-4.9,3.9-8.8,8.8-8.8S47.2,27.1,47.2,32z"/>
			<path class="st2" d="M38.4,24c4.4,0,8,3.6,8,8s-3.6,8-8,8s-8-3.6-8-8S34,24,38.4,24 M38.4,22.4c-5.3,0-9.6,4.3-9.6,9.6
				s4.3,9.6,9.6,9.6S48,37.3,48,32C48,26.7,43.7,22.4,38.4,22.4z"/>
			<path class="st5" d="M11.2,44c-1.3,0-2.4-1.1-2.4-2.4V22.4c0-1.3,1.1-2.4,2.4-2.4s2.4,1.1,2.4,2.4v19.2
				C13.6,42.9,12.5,44,11.2,44z"/>
			<path class="st2" d="M11.2,20.8c0.9,0,1.6,0.7,1.6,1.6v19.2c0,0.9-0.7,1.6-1.6,1.6s-1.6-0.7-1.6-1.6V22.4
				C9.6,21.5,10.3,20.8,11.2,20.8 M11.2,19.2c-1.8,0-3.2,1.4-3.2,3.2v19.2c0,1.8,1.4,3.2,3.2,3.2s3.2-1.4,3.2-3.2V22.4
				C14.4,20.6,13,19.2,11.2,19.2z"/>
			<path class="st4" d="M11.2,43.2c-0.9,0-1.6-0.7-1.6-1.6V32h3.2v9.6C12.8,42.5,12.1,43.2,11.2,43.2z"/>
			<path class="st6" d="M33.3,19.7L32.6,18"/>
			<path class="st6" d="M44.2,46l-0.7-1.7"/>
			<path class="st6" d="M50.7,26.9l1.7-0.7"/>
			<path class="st6" d="M24.4,37.8l1.7-0.7"/>
			<path class="st6" d="M43.5,19.7l0.7-1.7"/>
			<path class="st6" d="M32.6,46l0.7-1.7"/>
			<path class="st6" d="M50.7,37.1l1.7,0.7"/>
			<path class="st6" d="M24.4,26.2l1.7,0.7"/>
			<path class="st2" d="M51.2,56H56c0.9,0,1.6,0.7,1.6,1.6c0,0.9-0.7,1.6-1.6,1.6h-4.8c-0.9,0-1.6-0.7-1.6-1.6
				C49.6,56.7,50.3,56,51.2,56z"/>
			<path class="st2" d="M8,56h4.8c0.9,0,1.6,0.7,1.6,1.6c0,0.9-0.7,1.6-1.6,1.6H8c-0.9,0-1.6-0.7-1.6-1.6C6.4,56.7,7.1,56,8,56z"/>
			<path class="st2" d="M60.8,24h-1.6c-0.9,0-1.6-0.7-1.6-1.6v-3.2c0-0.9,0.7-1.6,1.6-1.6h1.6c0.9,0,1.6,0.7,1.6,1.6v3.2
				C62.4,23.3,61.7,24,60.8,24z"/>
			<path class="st2" d="M60.8,46.4h-1.6c-0.9,0-1.6-0.7-1.6-1.6v-3.2c0-0.9,0.7-1.6,1.6-1.6h1.6c0.9,0,1.6,0.7,1.6,1.6v3.2
				C62.4,45.7,61.7,46.4,60.8,46.4z"/>
		</g>
	</g>
</g>
</svg>
