<?xml version="1.0" encoding="UTF-8"?>
<svg xmlns="http://www.w3.org/2000/svg" xmlns:xlink="http://www.w3.org/1999/xlink" viewBox="0 0 40 40" version="1.1" width="64px" height="64px">
<g id="surface1">
<path style=" fill:#DFF0FE;" d="M 20 38.460938 C 18.296875 37.71875 4.636719 30.988281 4.5 6.367188 L 20 1.523438 L 35.5 6.367188 C 35.363281 30.964844 21.707031 37.714844 20 38.460938 Z "/>
<path style=" fill:#4788C7;" d="M 20 2.046875 L 34.996094 6.734375 C 34.738281 29.925781 22.242188 36.851563 19.996094 37.910156 C 17.734375 36.867188 5.261719 30.058594 5.003906 6.734375 L 20 2.046875 M 20 1 L 4 6 C 4 33.140625 20 39 20 39 C 20 39 36 33.066406 36 6 Z "/>
<path style=" fill:#98CCFD;" d="M 23.5 13 C 23.5 14.933594 21.933594 16.5 20 16.5 C 18.066406 16.5 16.5 14.933594 16.5 13 C 16.5 11.066406 18.066406 9.5 20 9.5 C 21.933594 9.5 23.5 11.066406 23.5 13 Z "/>
<path style=" fill:#4788C7;" d="M 20 10 C 21.652344 10 23 11.347656 23 13 C 23 14.652344 21.652344 16 20 16 C 18.347656 16 17 14.652344 17 13 C 17 11.347656 18.347656 10 20 10 M 20 9 C 17.789063 9 16 10.789063 16 13 C 16 15.210938 17.789063 17 20 17 C 22.210938 17 24 15.210938 24 13 C 24 10.789063 22.210938 9 20 9 Z "/>
<path style=" fill:#98CCFD;" d="M 13.519531 24.5 C 13.773438 21.148438 16.585938 18.5 20 18.5 C 23.414063 18.5 26.226563 21.148438 26.480469 24.5 Z "/>
<path style=" fill:#4788C7;" d="M 20 19 C 22.96875 19 25.4375 21.164063 25.917969 24 L 14.082031 24 C 14.5625 21.164063 17.03125 19 20 19 M 20 18 C 16.132813 18 13 21.132813 13 25 L 27 25 C 27 21.132813 23.867188 18 20 18 Z "/>
</g>
</svg>
