<?xml version="1.0" encoding="UTF-8"?>
<svg xmlns="http://www.w3.org/2000/svg" xmlns:xlink="http://www.w3.org/1999/xlink" viewBox="0 0 40 40" version="1.1" width="64px" height="64px">
<g id="surface1">
<path style=" fill:#B6DCFE;" d="M 1.511719 35.5 C 1.78125 29.941406 6.492188 25.5 12.25 25.5 L 19.75 25.5 C 25.507813 25.5 30.21875 29.941406 30.488281 35.5 Z "/>
<path style=" fill:#4788C7;" d="M 19.75 26 C 25.054688 26 29.433594 29.953125 29.949219 35 L 2.050781 35 C 2.566406 29.953125 6.945313 26 12.25 26 L 19.75 26 M 19.75 25 L 12.25 25 C 6.035156 25 1 29.925781 1 36 L 31 36 C 31 29.925781 25.964844 25 19.75 25 Z "/>
<path style=" fill:#FFFFFF;" d="M 16 28.5 C 12.925781 28.5 11.703125 25.875 11.5 25.378906 L 11.5 19.910156 L 20.5 19.910156 L 20.5 25.378906 C 20.296875 25.875 19.074219 28.5 16 28.5 Z "/>
<path style=" fill:#4788C7;" d="M 20 20.410156 L 20 25.273438 C 19.738281 25.863281 18.605469 28 16 28 C 13.390625 28 12.257813 25.859375 12 25.273438 L 12 20.410156 L 20 20.410156 M 21 19.410156 L 11 19.410156 L 11 25.472656 C 11 25.472656 12.265625 29 16 29 C 19.734375 29 21 25.472656 21 25.472656 Z "/>
<path style=" fill:#DFF0FE;" d="M 22.429688 17.644531 C 21.285156 17.644531 20.359375 16.714844 20.359375 15.570313 C 20.359375 14.429688 21.285156 13.5 22.429688 13.5 C 24.152344 13.5 24.5 13.964844 24.5 14.714844 C 24.5 15.964844 23.476563 17.644531 22.429688 17.644531 Z M 9.570313 17.644531 C 8.523438 17.644531 7.5 15.964844 7.5 14.714844 C 7.5 13.964844 7.847656 13.5 9.570313 13.5 C 10.714844 13.5 11.640625 14.429688 11.640625 15.570313 C 11.640625 16.714844 10.714844 17.644531 9.570313 17.644531 Z "/>
<path style=" fill:#4788C7;" d="M 22.429688 14 C 24 14 24 14.363281 24 14.714844 C 24 15.757813 23.105469 17.144531 22.429688 17.144531 C 21.5625 17.144531 20.859375 16.4375 20.859375 15.570313 C 20.859375 14.707031 21.5625 14 22.429688 14 M 9.570313 14 C 10.4375 14 11.140625 14.703125 11.140625 15.570313 C 11.140625 16.4375 10.4375 17.140625 9.570313 17.140625 C 8.894531 17.144531 8 15.757813 8 14.714844 C 8 14.363281 8 14 9.570313 14 M 22.429688 13 C 21.007813 13 19.859375 14.152344 19.859375 15.570313 C 19.859375 16.992188 21.007813 18.140625 22.429688 18.140625 C 23.847656 18.140625 25 16.132813 25 14.714844 C 25 13.292969 23.847656 13 22.429688 13 Z M 9.570313 13 C 8.152344 13 7 13.292969 7 14.714844 C 7 16.132813 8.152344 18.144531 9.570313 18.144531 C 10.992188 18.144531 12.140625 16.992188 12.140625 15.570313 C 12.140625 14.152344 10.992188 13 9.570313 13 Z "/>
<path style=" fill:#FFFFFF;" d="M 16 24.5 C 15.421875 24.5 14.867188 24.277344 14.441406 23.867188 L 14.351563 23.78125 L 14.230469 23.75 C 11.445313 22.960938 9.5 20.390625 9.5 17.5 L 9.5 9.363281 C 9.5 7.800781 10.773438 6.527344 12.335938 6.527344 L 19.664063 6.527344 C 21.226563 6.527344 22.5 7.800781 22.5 9.363281 L 22.5 17.5 C 22.5 20.390625 20.554688 22.960938 17.769531 23.75 L 17.648438 23.785156 L 17.558594 23.871094 C 17.132813 24.277344 16.578125 24.5 16 24.5 Z "/>
<path style=" fill:#4788C7;" d="M 19.664063 7.027344 C 20.953125 7.027344 22 8.074219 22 9.363281 L 22 17.5 C 22 20.171875 20.203125 22.542969 17.632813 23.269531 L 17.394531 23.335938 L 17.214844 23.507813 C 16.882813 23.824219 16.449219 24 16 24 C 15.550781 24 15.117188 23.824219 14.785156 23.507813 L 14.605469 23.335938 L 14.367188 23.269531 C 11.796875 22.542969 10 20.171875 10 17.5 L 10 9.363281 C 10 8.074219 11.046875 7.027344 12.335938 7.027344 L 19.664063 7.027344 M 19.664063 6.027344 L 12.335938 6.027344 C 10.492188 6.027344 9 7.519531 9 9.363281 L 9 17.5 C 9 20.703125 11.15625 23.398438 14.09375 24.230469 C 14.589844 24.703125 15.261719 25 16 25 C 16.738281 25 17.410156 24.703125 17.90625 24.230469 C 20.84375 23.398438 23 20.703125 23 17.5 L 23 9.363281 C 23 7.519531 21.507813 6.027344 19.664063 6.027344 Z "/>
<path style=" fill:#B6DCFE;" d="M 22.5 15.5 L 22.5 12 C 22.5 8.515625 20.28125 7.574219 20.1875 7.535156 L 19.84375 7.398438 L 19.609375 7.6875 C 19.589844 7.714844 17.28125 10.5 14 10.5 C 13.734375 10.5 13.472656 10.492188 13.210938 10.484375 C 12.945313 10.476563 12.683594 10.464844 12.433594 10.464844 C 11.554688 10.464844 9.5 10.464844 9.5 13 L 9.5 15.5 L 9.285156 15.5 C 8.84375 14.726563 7.5 12.152344 7.5 9.574219 C 7.5 4.820313 10.996094 1.5 16 1.5 C 19.09375 1.5 20.542969 4.203125 20.558594 4.230469 L 20.675781 4.457031 L 20.929688 4.496094 C 22.460938 4.714844 24.5 5.523438 24.5 10 C 24.5 12.328125 23.160156 14.761719 22.722656 15.5 Z "/>
<path style=" fill:#4788C7;" d="M 16 2 C 18.761719 2 20.0625 4.367188 20.113281 4.464844 L 20.351563 4.917969 L 20.855469 4.988281 C 22.320313 5.199219 24 5.957031 24 10 C 24 11.394531 23.484375 12.84375 23 13.894531 L 23 12 C 23 8.183594 20.484375 7.117188 20.378906 7.074219 L 19.691406 6.796875 L 19.222656 7.371094 C 19.199219 7.398438 17.058594 10 14 10 C 13.742188 10 13.480469 9.992188 13.226563 9.984375 C 12.953125 9.972656 12.6875 9.964844 12.429688 9.964844 C 11.582031 9.964844 9 9.964844 9 13 L 9 13.800781 C 8.515625 12.675781 8 11.121094 8 9.574219 C 8 5.113281 11.289063 2 16 2 M 16 1 C 10.640625 1 7 4.667969 7 9.574219 C 7 12.828125 9 16 9 16 L 10 16 C 10 16 10 13.894531 10 13 C 10 11.210938 11.085938 10.964844 12.429688 10.964844 C 12.933594 10.964844 13.46875 11 14 11 C 17.574219 11 20 8 20 8 C 20 8 22 8.8125 22 12 C 22 12.984375 22 16 22 16 L 23 16 C 23 16 25 12.964844 25 10 C 25 5.839844 23.296875 4.328125 21 4 C 21 4 19.433594 1 16 1 Z "/>
<path style=" fill:#98CCFD;" d="M 31 39.5 C 26.3125 39.5 22.5 35.6875 22.5 31 C 22.5 26.3125 26.3125 22.5 31 22.5 C 35.6875 22.5 39.5 26.3125 39.5 31 C 39.5 35.6875 35.6875 39.5 31 39.5 Z "/>
<path style=" fill:#4788C7;" d="M 31 23 C 35.410156 23 39 26.589844 39 31 C 39 35.410156 35.410156 39 31 39 C 26.589844 39 23 35.410156 23 31 C 23 26.589844 26.589844 23 31 23 M 31 22 C 26.027344 22 22 26.027344 22 31 C 22 35.972656 26.027344 40 31 40 C 35.972656 40 40 35.972656 40 31 C 40 26.027344 35.972656 22 31 22 Z "/>
<path style="fill:none;stroke-width:2;stroke-linecap:butt;stroke-linejoin:miter;stroke:#FFFFFF;stroke-opacity:1;stroke-miterlimit:10;" d="M 26.820313 31.023438 L 29.589844 33.792969 L 35.820313 27.5625 "/>
</g>
</svg>
