<?xml version="1.0" encoding="UTF-8"?>
<svg xmlns="http://www.w3.org/2000/svg" xmlns:xlink="http://www.w3.org/1999/xlink" viewBox="0 0 40 40" version="1.1" width="64px" height="64px">
<g id="surface1">
<path style=" fill:#DFF0FE;" d="M 30.5 26.5 C 28.847656 26.5 27.5 25.152344 27.5 23.5 C 27.5 21.847656 28.847656 20.5 30.5 20.5 C 32.988281 20.5 33.5 21.230469 33.5 22.332031 C 33.5 24.152344 32.046875 26.5 30.5 26.5 Z "/>
<path style=" fill:#4788C7;" d="M 30.5 21 C 33 21 33 21.738281 33 22.332031 C 33 23.847656 31.707031 26 30.5 26 C 29.121094 26 28 24.878906 28 23.5 C 28 22.121094 29.121094 21 30.5 21 M 30.5 20 C 28.566406 20 27 21.566406 27 23.5 C 27 25.433594 28.566406 27 30.5 27 C 32.433594 27 34 24.265625 34 22.332031 C 34 20.398438 32.433594 20 30.5 20 Z "/>
<path style=" fill:#DFF0FE;" d="M 9.5 26.5 C 7.953125 26.5 6.5 24.152344 6.5 22.332031 C 6.5 21.230469 7.011719 20.5 9.5 20.5 C 11.152344 20.5 12.5 21.847656 12.5 23.5 C 12.5 25.152344 11.152344 26.5 9.5 26.5 Z "/>
<path style=" fill:#4788C7;" d="M 9.5 21 C 10.878906 21 12 22.121094 12 23.5 C 12 24.878906 10.878906 26 9.5 26 C 8.292969 26 7 23.847656 7 22.332031 C 7 21.738281 7 21 9.5 21 M 9.5 20 C 7.566406 20 6 20.398438 6 22.332031 C 6 24.265625 7.566406 27 9.5 27 C 11.433594 27 13 25.433594 13 23.5 C 13 21.566406 11.433594 20 9.5 20 Z "/>
<path style=" fill:#FFFFFF;" d="M 20 38.5 C 18.730469 38.5 17.554688 37.972656 16.683594 37.015625 L 16.601563 36.925781 L 16.480469 36.882813 C 12.304688 35.394531 9.5 31.425781 9.5 27 L 9.5 12.382813 C 9.5 9.765625 11.628906 7.640625 14.242188 7.640625 L 25.757813 7.640625 C 28.371094 7.640625 30.5 9.765625 30.5 12.382813 L 30.5 27 C 30.5 31.425781 27.695313 35.394531 23.519531 36.882813 L 23.398438 36.925781 L 23.316406 37.015625 C 22.445313 37.972656 21.269531 38.5 20 38.5 Z "/>
<path style=" fill:#4788C7;" d="M 25.757813 8.140625 C 28.097656 8.140625 30 10.042969 30 12.382813 L 30 27 C 30 31.214844 27.328125 34.996094 23.351563 36.410156 L 23.113281 36.496094 L 22.945313 36.679688 C 22.171875 37.53125 21.125 38 20 38 C 18.875 38 17.828125 37.53125 17.054688 36.679688 L 16.886719 36.496094 L 16.648438 36.410156 C 12.671875 34.996094 10 31.214844 10 27 L 10 12.382813 C 10 10.042969 11.902344 8.140625 14.242188 8.140625 L 25.757813 8.140625 M 25.757813 7.140625 L 14.242188 7.140625 C 11.347656 7.140625 9 9.484375 9 12.382813 L 9 27 C 9 31.78125 12.054688 35.835938 16.3125 37.355469 C 17.230469 38.359375 18.535156 39 20 39 C 21.464844 39 22.769531 38.359375 23.6875 37.351563 C 27.945313 35.835938 31 31.78125 31 27 L 31 12.382813 C 31 9.484375 28.652344 7.140625 25.757813 7.140625 Z "/>
<path style=" fill:#B6DCFE;" d="M 30.5 24.5 L 30.5 17.808594 C 30.5 12.144531 26.210938 10.546875 26.167969 10.53125 L 25.84375 10.414063 L 25.621094 10.675781 C 25.585938 10.714844 22.246094 14.5 15.929688 14.5 C 11.78125 14.5 9.5 16.601563 9.5 20.417969 L 9.5 24.5 L 9.335938 24.5 C 8.773438 23.097656 6.5 17.171875 6.5 12.875 C 6.5 7.28125 11.175781 1.5 19 1.5 C 23.070313 1.5 25.222656 3.539063 26.140625 4.757813 L 26.289063 4.953125 L 26.539063 4.953125 C 28.34375 4.953125 33.5 6.476563 33.5 13.226563 C 33.5 16.605469 31.210938 22.996094 30.652344 24.5 Z "/>
<path style=" fill:#4788C7;" d="M 19 2 C 22.855469 2 24.878906 3.914063 25.742188 5.058594 L 26.039063 5.453125 L 26.539063 5.453125 C 28.214844 5.453125 33 6.882813 33 13.226563 C 33 15.566406 31.859375 19.429688 31 22.003906 L 31 17.808594 C 31 11.796875 26.527344 10.128906 26.335938 10.058594 L 25.691406 9.832031 L 25.242188 10.347656 C 25.113281 10.496094 21.996094 14 15.929688 14 C 11.460938 14 9 16.277344 9 20.417969 L 9 22.175781 C 8.144531 19.722656 7 15.882813 7 12.871094 C 7 7.601563 11.207031 2 19 2 M 19 1 C 10.671875 1 6 7.128906 6 12.875 C 6 17.917969 9 25 9 25 L 10 25 C 10 25 10 21.804688 10 20.417969 C 10 16.152344 12.890625 15 15.929688 15 C 22.574219 15 26 11 26 11 C 26 11 30 12.429688 30 17.808594 C 30 19.335938 30 25 30 25 L 31 25 C 31 25 34 17.191406 34 13.226563 C 34 6.242188 28.644531 4.453125 26.539063 4.453125 C 26.007813 3.753906 23.792969 1 19 1 Z "/>
<path style=" fill:#98CCFD;" d="M 26.050781 28.5 C 23.605469 28.5 22.582031 27.035156 21.757813 25.859375 C 21.222656 25.089844 20.757813 24.429688 20 24.429688 C 19.261719 24.429688 18.804688 25.082031 18.273438 25.839844 C 17.441406 27.023438 16.40625 28.5 13.949219 28.5 C 10.652344 28.5 8.507813 25.269531 7.574219 18.898438 C 9.585938 19.605469 15.054688 21.355469 20 21.355469 C 24.949219 21.355469 30.429688 19.605469 32.445313 18.894531 C 31.503906 25.269531 29.355469 28.5 26.050781 28.5 Z "/>
<path style=" fill:#4788C7;" d="M 31.820313 19.636719 C 30.871094 25.1875 28.933594 28 26.050781 28 C 23.867188 28 22.964844 26.710938 22.167969 25.570313 C 21.601563 24.765625 21.019531 23.929688 20 23.929688 C 19.003906 23.929688 18.425781 24.753906 17.863281 25.554688 C 17.058594 26.699219 16.148438 28 13.949219 28 C 11.074219 28 9.140625 25.1875 8.195313 19.640625 C 10.652344 20.453125 15.53125 21.855469 20 21.855469 C 24.472656 21.855469 29.359375 20.453125 31.820313 19.636719 M 33.054688 18.144531 C 33.054688 18.144531 26.046875 20.855469 20 20.855469 C 13.953125 20.855469 6.964844 18.144531 6.964844 18.144531 C 7.207031 19.847656 8.125 29 13.949219 29 C 18.191406 29 18.667969 24.929688 20 24.929688 C 21.371094 24.929688 21.808594 29 26.050781 29 C 31.875 29 32.8125 19.847656 33.054688 18.144531 Z "/>
<path style=" fill:#4788C7;" d="M 26.5 24.5 C 26.5 25.050781 26.050781 25.5 25.5 25.5 C 24.949219 25.5 24.5 25.050781 24.5 24.5 C 24.5 23.949219 24.949219 23.5 25.5 23.5 C 26.050781 23.5 26.5 23.949219 26.5 24.5 Z "/>
<path style=" fill:#4788C7;" d="M 25.5 24 C 25.777344 24 26 24.222656 26 24.5 C 26 24.777344 25.777344 25 25.5 25 C 25.222656 25 25 24.777344 25 24.5 C 25 24.222656 25.222656 24 25.5 24 M 25.5 23 C 24.671875 23 24 23.671875 24 24.5 C 24 25.328125 24.671875 26 25.5 26 C 26.328125 26 27 25.328125 27 24.5 C 27 23.671875 26.328125 23 25.5 23 Z "/>
<path style=" fill:#4788C7;" d="M 15.5 24.5 C 15.5 25.050781 15.050781 25.5 14.5 25.5 C 13.949219 25.5 13.5 25.050781 13.5 24.5 C 13.5 23.949219 13.949219 23.5 14.5 23.5 C 15.050781 23.5 15.5 23.949219 15.5 24.5 Z "/>
<path style=" fill:#4788C7;" d="M 14.5 24 C 14.777344 24 15 24.222656 15 24.5 C 15 24.777344 14.777344 25 14.5 25 C 14.222656 25 14 24.777344 14 24.5 C 14 24.222656 14.222656 24 14.5 24 M 14.5 23 C 13.671875 23 13 23.671875 13 24.5 C 13 25.328125 13.671875 26 14.5 26 C 15.328125 26 16 25.328125 16 24.5 C 16 23.671875 15.328125 23 14.5 23 Z "/>
</g>
</svg>
