<?xml version="1.0" encoding="UTF-8"?>
<svg xmlns="http://www.w3.org/2000/svg" xmlns:xlink="http://www.w3.org/1999/xlink" viewBox="0 0 40 40" version="1.1" width="64px" height="64px">
<g id="surface1">
<path style=" fill:#98CCFD;" d="M 14.207031 28.5 L 17.5 28.5 L 17.5 17.5 L 22.5 17.5 L 22.5 28.5 L 25.792969 28.5 L 20 34.292969 Z "/>
<path style=" fill:#4788C7;" d="M 22 18 L 22 29 L 24.585938 29 L 20 33.585938 L 15.414063 29 L 18 29 L 18 18 L 22 18 M 23 17 L 17 17 L 17 28 L 13 28 L 20 35 L 27 28 L 23 28 Z "/>
<path style=" fill:#B6DCFE;" d="M 20 20.5 C 14.761719 20.5 10.5 16.238281 10.5 11 C 10.5 5.761719 14.761719 1.5 20 1.5 C 25.238281 1.5 29.5 5.761719 29.5 11 C 29.5 16.238281 25.238281 20.5 20 20.5 Z "/>
<path style=" fill:#4788C7;" d="M 20 2 C 24.964844 2 29 6.035156 29 11 C 29 15.964844 24.964844 20 20 20 C 15.035156 20 11 15.964844 11 11 C 11 6.035156 15.035156 2 20 2 M 20 1 C 14.476563 1 10 5.476563 10 11 C 10 16.523438 14.476563 21 20 21 C 25.523438 21 30 16.523438 30 11 C 30 5.476563 25.523438 1 20 1 Z "/>
<path style=" fill:#DFF0FE;" d="M 27 11 C 27 14.867188 23.867188 18 20 18 C 16.132813 18 13 14.867188 13 11 C 13 7.132813 16.132813 4 20 4 C 23.867188 4 27 7.132813 27 11 Z "/>
<path style="fill:none;stroke-width:1;stroke-linecap:round;stroke-linejoin:miter;stroke:#4788C7;stroke-opacity:1;stroke-miterlimit:10;" d="M 38.5 16.5 L 35.5 16.5 L 35.5 35.5 C 35.5 37.15625 34.15625 38.5 32.5 38.5 L 7.5 38.5 C 5.84375 38.5 4.5 37.15625 4.5 35.5 L 4.5 16.5 L 1.5 16.5 "/>
<path style=" fill:#4788C7;" d="M 21.613281 10.5625 C 21.167969 10.140625 20.660156 10.003906 19.839844 10.003906 C 19.636719 10.003906 19.410156 10.011719 19.164063 10.023438 L 19.316406 8 L 22 8 L 22 7 L 18.269531 7 L 18 11 C 19 11 19.058594 11 19.269531 11 C 19.878906 11 20.226563 11.039063 20.554688 11.285156 C 20.878906 11.527344 21.109375 11.953125 21.109375 12.390625 C 21.109375 12.839844 20.914063 13.21875 20.59375 13.484375 C 20.273438 13.753906 19.917969 13.820313 19.390625 13.820313 C 18.96875 13.820313 18.414063 13.703125 18 13.476563 L 18 14.640625 C 18.355469 14.765625 18.820313 14.832031 19.402344 14.832031 C 20.300781 14.832031 21.003906 14.601563 21.519531 14.136719 C 22.03125 13.675781 22.332031 13.105469 22.332031 12.335938 C 22.332031 11.605469 22.0625 10.984375 21.613281 10.5625 Z "/>
</g>
</svg>
