<?xml version="1.0"?>
<svg xmlns="http://www.w3.org/2000/svg" xmlns:xlink="http://www.w3.org/1999/xlink" version="1.1" viewBox="0 0 252 252" width="64px" height="64px"><g fill="none" fill-rule="nonzero" stroke="none" stroke-width="1" stroke-linecap="butt" stroke-linejoin="miter" stroke-miterlimit="none" stroke-dasharray="" stroke-dashoffset="0" font-family="none" font-weight="none" font-size="none" text-anchor="none" style="mix-blend-mode: normal"><path d="M0,252v-252h252v252z" fill="none" stroke="none" stroke-miterlimit="10"/><g><g id="surface1"><path d="M125.92617,220.5h-6.22617l0.09844,-207.9h6.20156c0,0 -0.09844,207.67852 -0.07383,207.9z" fill="#4582ec" stroke="none" stroke-miterlimit="10"/><path d="M169.70625,140.71641c-6.34922,-4.42969 -24.65859,-15.94687 -43.43555,-16.06993c-18.99844,0 -37.33242,11.44336 -43.92773,16.04531c-4.74961,-4.89726 -17.5957,-16.04531 -36.12656,-16.04531c-15.79922,0 -29.35899,8.09649 -36.56953,13.43672c3.54375,-60.73594 54.04219,-109.33945 115.59023,-109.7332h1.52578c61.40039,0.39375 112.04648,49.0711 115.59023,109.7332c-7.18594,-5.31562 -20.62265,-13.33828 -36.27422,-13.43672c-18.30937,0 -31.52461,11.22188 -36.37266,16.06993z" fill="#b6dcfe" stroke="none" stroke-miterlimit="10"/><path d="M126,31.5h0.73828c57.56132,0.36914 105.37734,44.32148 111.89882,100.30781c-8.02265,-4.97109 -19.63828,-10.2375 -32.85351,-10.31133c-17.17735,0 -30.1711,9.49922 -36.42187,15.18399c-7.99805,-5.26641 -25.34766,-15.08555 -43.36172,-15.18399c-17.81719,0 -35.14219,9.79453 -43.28789,15.15938c-6.17695,-5.75859 -18.92461,-15.15938 -36.52031,-15.15938c-13.1414,0 -24.80625,5.29102 -32.85351,10.28672c6.54609,-56.01094 54.23906,-99.91406 111.89882,-100.2832h0.76289M126,25.2h-0.76289c-65.75625,0.41836 -118.93711,53.84531 -118.93711,119.7c0,0 17.86641,-17.10352 39.91641,-17.10352c22.02539,0 35.68359,17.10352 35.68359,17.10352c1.32891,-1.00898 22.73906,-17.10352 44.1,-17.10352h0.2461c21.95156,0.12305 43.8539,17.10352 43.8539,17.10352c0,0 14.34727,-17.10352 35.6836,-17.10352h0.2707c21.92695,0.12305 39.6457,17.10352 39.6457,17.10352v-0.76289c-0.41836,-65.51015 -53.42695,-118.51875 -118.93711,-118.93711z" fill="#4582ec" stroke="none" stroke-miterlimit="10"/><path d="M83.25352,138.82148c0,0 -11.51719,-83.89336 38.46445,-111.13594" fill="none" stroke="#4582ec" stroke-miterlimit="2"/><path d="M170.1,138.6c0,0 0.22148,-82.71211 -48.38203,-110.91445" fill="none" stroke="#4582ec" stroke-miterlimit="2"/><path d="M151.2,220.5c0,6.96445 -5.63555,12.6 -12.6,12.6c-6.96445,0 -12.6,-5.63555 -12.6,-12.6h-6.3c0,10.43437 8.46563,18.9 18.9,18.9c10.43437,0 18.9,-8.46563 18.9,-18.9z" fill="#4582ec" stroke="none" stroke-miterlimit="10"/><path d="M122.85,18.9c-1.72265,0 -3.15,-1.42734 -3.15,-3.15v-6.3c0,-1.72265 1.42735,-3.15 3.15,-3.15c1.72266,0 3.15,1.42735 3.15,3.15v6.3c0,1.72266 -1.42734,3.15 -3.15,3.15z" fill="#4582ec" stroke="none" stroke-miterlimit="10"/><path d="M157.5,220.5h-6.3v-3.15c0,-1.72265 1.42735,-3.15 3.15,-3.15c1.72266,0 3.15,1.42735 3.15,3.15z" fill="#4582ec" stroke="none" stroke-miterlimit="10"/></g></g></g></svg>
