<?xml version="1.0" encoding="UTF-8"?>
<svg xmlns="http://www.w3.org/2000/svg" xmlns:xlink="http://www.w3.org/1999/xlink" viewBox="0 0 40 40" version="1.1" width="64px" height="64px">
<g id="surface1">
<path style=" fill:#4788C7;" d="M 32 1 L 34 1 L 34 11 L 32 11 Z "/>
<path style=" fill:#DFF0FE;" d="M 5.683594 21.894531 L 23.871094 9.449219 L 23.878906 9.457031 L 24.273438 9.183594 C 25.8125 8.082031 27.617188 7.5 29.5 7.5 C 34.464844 7.5 38.5 11.539063 38.5 16.5 C 38.5 19.390625 37.089844 22.125 34.726563 23.816406 L 34.421875 24.035156 L 16.144531 36.539063 Z "/>
<path style=" fill:#4788C7;" d="M 29.5 8 C 34.1875 8 38 11.8125 38 16.5 C 38 19.230469 36.667969 21.8125 34.433594 23.410156 L 34.21875 23.570313 L 16.265625 35.851563 L 6.386719 22.019531 L 23.730469 10.148438 L 23.746094 10.175781 L 24.566406 9.589844 C 26.019531 8.550781 27.726563 8 29.5 8 M 29.5 7 C 27.441406 7 25.539063 7.660156 23.984375 8.777344 L 23.976563 8.769531 L 4.976563 21.769531 L 16.019531 37.230469 L 35.019531 24.230469 L 35.015625 24.222656 C 37.425781 22.5 39 19.6875 39 16.5 C 39 11.253906 34.746094 7 29.5 7 Z "/>
<path style="fill:#DCD5F2;stroke-width:1;stroke-linecap:square;stroke-linejoin:miter;stroke:#4788C7;stroke-opacity:1;stroke-miterlimit:10;" d="M 17.269531 30.789063 L 38 16 "/>
<path style=" fill:#C2E8FF;" d="M 10.5 38.5 C 5.535156 38.5 1.5 34.460938 1.5 29.5 C 1.5 24.539063 5.535156 20.5 10.5 20.5 C 15.464844 20.5 19.5 24.539063 19.5 29.5 C 19.5 34.460938 15.464844 38.5 10.5 38.5 Z "/>
<path style=" fill:#4788C7;" d="M 10.5 21 C 15.1875 21 19 24.8125 19 29.5 C 19 34.1875 15.1875 38 10.5 38 C 5.8125 38 2 34.1875 2 29.5 C 2 24.8125 5.8125 21 10.5 21 M 10.5 20 C 5.253906 20 1 24.253906 1 29.5 C 1 34.746094 5.253906 39 10.5 39 C 15.746094 39 20 34.746094 20 29.5 C 20 24.253906 15.746094 20 10.5 20 Z "/>
<path style=" fill:#DFF0FE;" d="M 10.5 38.5 C 5.535156 38.5 1.5 34.460938 1.5 29.5 C 1.5 24.539063 5.535156 20.5 10.5 20.5 C 15.464844 20.5 19.5 24.539063 19.5 29.5 C 19.5 34.460938 15.464844 38.5 10.5 38.5 Z "/>
<path style=" fill:#4788C7;" d="M 10.5 21 C 15.1875 21 19 24.8125 19 29.5 C 19 34.1875 15.1875 38 10.5 38 C 5.8125 38 2 34.1875 2 29.5 C 2 24.8125 5.8125 21 10.5 21 M 10.5 20 C 5.253906 20 1 24.253906 1 29.5 C 1 34.746094 5.253906 39 10.5 39 C 15.746094 39 20 34.746094 20 29.5 C 20 24.253906 15.746094 20 10.5 20 Z "/>
<path style=" fill:#98CCFD;" d="M 15.5 29.5 C 15.5 32.261719 13.261719 34.5 10.5 34.5 C 7.738281 34.5 5.5 32.261719 5.5 29.5 C 5.5 26.738281 7.738281 24.5 10.5 24.5 C 13.261719 24.5 15.5 26.738281 15.5 29.5 Z "/>
<path style=" fill:#4788C7;" d="M 10.5 25 C 12.980469 25 15 27.019531 15 29.5 C 15 31.980469 12.980469 34 10.5 34 C 8.019531 34 6 31.980469 6 29.5 C 6 27.019531 8.019531 25 10.5 25 M 10.5 24 C 7.460938 24 5 26.460938 5 29.5 C 5 32.539063 7.460938 35 10.5 35 C 13.539063 35 16 32.539063 16 29.5 C 16 26.460938 13.539063 24 10.5 24 Z "/>
<path style="fill:none;stroke-width:1;stroke-linecap:round;stroke-linejoin:miter;stroke:#FFFFFF;stroke-opacity:1;stroke-miterlimit:10;" d="M 10.5 27.5 C 9.394531 27.5 8.5 28.394531 8.5 29.5 "/>
<path style=" fill:#4788C7;" d="M 29 1 L 37 1 C 37.550781 1 38 1.449219 38 2 C 38 2.550781 37.550781 3 37 3 L 29 3 C 28.449219 3 28 2.550781 28 2 C 28 1.449219 28.449219 1 29 1 Z "/>
</g>
</svg>
