<?xml version="1.0" encoding="UTF-8"?>
<svg xmlns="http://www.w3.org/2000/svg" xmlns:xlink="http://www.w3.org/1999/xlink" viewBox="0 0 40 40" version="1.1" width="64px" height="64px">
<g id="surface1">
<path style=" fill:#98CCFD;" d="M 20 29.5 C 14.308594 29.5 9.5 24.691406 9.5 19 C 9.5 14.890625 11.640625 10.996094 12.75 9.257813 C 13.054688 10.582031 13.652344 12.746094 14.574219 14.261719 L 15.015625 14.984375 L 15.433594 14.246094 C 18.070313 9.609375 19.738281 3.925781 20.285156 1.886719 C 22.550781 3.824219 30.5 11.1875 30.5 19 C 30.5 24.886719 25.886719 29.5 20 29.5 Z "/>
<path style=" fill:#4788C7;" d="M 20.558594 2.789063 C 23.324219 5.261719 30 11.960938 30 19 C 30 24.605469 25.605469 29 20 29 C 14.578125 29 10 24.421875 10 19 C 10 15.683594 11.449219 12.496094 12.558594 10.542969 C 12.910156 11.8125 13.433594 13.351563 14.144531 14.519531 L 15.03125 15.972656 L 15.867188 14.496094 C 18.28125 10.25 19.859375 5.269531 20.558594 2.789063 M 20 1 C 20 1 18.257813 8.265625 15 14 C 13.648438 11.785156 13 8 13 8 C 13 8 9 13.246094 9 19 C 9 24.753906 13.882813 30 20 30 C 26.117188 30 31 25.117188 31 19 C 31 9.578125 20 1 20 1 Z "/>
<path style=" fill:#DFF0FE;" d="M 14 24 C 14 18.769531 20 18.535156 20 10.921875 C 22.609375 14.835938 26 18.21875 26 24 C 26 27.925781 23.058594 30 20 30 C 16.941406 30 14 27.980469 14 24 Z "/>
<path style=" fill:#FFFFFF;" d="M 17.230469 26.152344 C 17.230469 24.625 20 20.617188 20 20.617188 C 20 20.617188 22.769531 24.625 22.769531 26.152344 C 22.769531 27.683594 21.527344 28.921875 20 28.921875 C 18.472656 28.921875 17.230469 27.683594 17.230469 26.152344 Z "/>
<path style=" fill:#B6DCFE;" d="M 2.5 23.5 L 37.5 23.5 L 37.5 37.5 L 2.5 37.5 Z "/>
<path style=" fill:#4788C7;" d="M 37 24 L 37 37 L 3 37 L 3 24 L 37 24 M 38 23 L 2 23 L 2 38 L 38 38 Z "/>
<path style=" fill:#B6DCFE;" d="M 16.5 23.5 L 30.5 23.5 L 30.5 30.5 L 16.5 30.5 Z "/>
<path style=" fill:#4788C7;" d="M 30 24 L 30 30 L 17 30 L 17 24 L 30 24 M 31 23 L 16 23 L 16 31 L 31 31 Z "/>
<path style=" fill:#B6DCFE;" d="M 2.5 23.5 L 16.5 23.5 L 16.5 30.5 L 2.5 30.5 Z "/>
<path style=" fill:#4788C7;" d="M 16 24 L 16 30 L 3 30 L 3 24 L 16 24 M 17 23 L 2 23 L 2 31 L 17 31 Z "/>
<path style=" fill:#B6DCFE;" d="M 23.5 30.5 L 37.5 30.5 L 37.5 37.5 L 23.5 37.5 Z "/>
<path style=" fill:#4788C7;" d="M 37 31 L 37 37 L 24 37 L 24 31 L 37 31 M 38 30 L 23 30 L 23 38 L 38 38 Z "/>
<path style=" fill:#B6DCFE;" d="M 9.5 30.5 L 23.5 30.5 L 23.5 37.5 L 9.5 37.5 Z "/>
<path style=" fill:#4788C7;" d="M 23 31 L 23 37 L 10 37 L 10 31 L 23 31 M 24 30 L 9 30 L 9 38 L 24 38 Z "/>
</g>
</svg>
