<?xml version="1.0" encoding="UTF-8"?>
<svg xmlns="http://www.w3.org/2000/svg" xmlns:xlink="http://www.w3.org/1999/xlink" viewBox="0 0 40 40" version="1.1" width="64px" height="64px">
<g id="surface1">
<path style="fill:none;stroke-width:1;stroke-linecap:butt;stroke-linejoin:miter;stroke:#4788C7;stroke-opacity:1;stroke-miterlimit:10;" d="M 36 33 L 7 3 "/>
<path style=" fill:#B6DCFE;" d="M 23 39.5 C 12.246094 39.5 3.5 30.753906 3.5 20 C 3.5 13.253906 6.898438 7.121094 12.613281 3.519531 L 14.539063 5.835938 C 9.566406 8.8125 6.5 14.183594 6.5 20 C 6.5 29.097656 13.902344 36.5 23 36.5 C 27.441406 36.5 31.574219 34.769531 34.699219 31.613281 L 36.789063 33.761719 C 33.101563 37.464844 28.222656 39.5 23 39.5 Z "/>
<path style=" fill:#4788C7;" d="M 12.511719 4.179688 L 13.789063 5.714844 C 8.953125 8.835938 6 14.203125 6 20 C 6 29.375 13.625 37 23 37 C 27.402344 37 31.515625 35.347656 34.6875 32.324219 L 36.082031 33.753906 C 32.53125 37.144531 27.921875 39 23 39 C 12.523438 39 4 30.476563 4 20 C 4 13.570313 7.164063 7.71875 12.511719 4.179688 M 12.722656 2.867188 C 6.902344 6.363281 3 12.71875 3 20 C 3 31.046875 11.953125 40 23 40 C 28.707031 40 33.84375 37.597656 37.488281 33.761719 L 34.722656 30.925781 L 34.695313 30.894531 C 31.773438 34.027344 27.621094 36 23 36 C 14.164063 36 7 28.835938 7 20 C 7 13.953125 10.355469 8.695313 15.304688 5.972656 Z "/>
<path style=" fill:#DFF0FE;" d="M 32.910156 10.128906 C 38.414063 15.636719 38.3125 24.503906 32.910156 29.910156 C 27.503906 35.3125 18.636719 35.414063 13.128906 29.910156 C 7.621094 24.402344 7.621094 15.636719 13.128906 10.128906 C 18.636719 4.621094 27.402344 4.625 32.910156 10.128906 Z "/>
<path style=" fill:#98CCFD;" d="M 30.34375 19.929688 C 30.683594 19.816406 30.90625 19.589844 31.242188 19.703125 C 31.917969 19.703125 32.480469 20.265625 32.929688 20.488281 C 33.492188 20.828125 34.054688 21.164063 34.726563 21.390625 C 35.402344 21.839844 36.191406 22.175781 36.75 22.511719 C 36.765625 22.382813 36.800781 22.242188 36.828125 22.105469 C 37.464844 17.882813 36.1875 13.410156 32.910156 10.128906 C 29.996094 7.214844 26.167969 5.859375 22.394531 6.03125 C 22.078125 6.191406 21.824219 6.429688 21.691406 6.777344 C 21.46875 7.226563 21.691406 7.902344 21.691406 8.351563 C 21.804688 8.914063 21.917969 9.476563 22.027344 10.039063 C 22.027344 10.261719 22.140625 10.601563 22.367188 10.601563 C 22.476563 10.710938 22.589844 10.597656 22.703125 10.488281 C 23.039063 10.375 23.152344 10.261719 23.488281 10.148438 C 23.601563 10.039063 23.828125 10.039063 23.828125 10.261719 C 23.828125 10.261719 23.941406 10.375 23.828125 10.488281 C 23.828125 11.609375 23.714844 12.621094 23.714844 13.746094 C 23.714844 13.972656 23.828125 14.308594 23.941406 14.421875 C 24.050781 14.53125 24.164063 14.421875 24.277344 14.53125 C 24.390625 14.644531 24.277344 14.757813 24.277344 14.980469 C 24.164063 15.320313 24.050781 15.65625 24.054688 15.882813 C 24.164063 16.21875 24.613281 16.441406 24.726563 16.78125 C 25.175781 17.453125 25.289063 18.242188 25.625 19.027344 C 25.738281 19.589844 25.964844 20.039063 26.074219 20.601563 C 26.523438 21.050781 26.75 21.5 27.3125 21.613281 C 28.660156 21.839844 29.222656 20.378906 30.34375 19.929688 Z "/>
<path style=" fill:#98CCFD;" d="M 17.261719 7.257813 C 15.769531 7.941406 14.367188 8.894531 13.128906 10.128906 C 12.925781 10.332031 12.734375 10.542969 12.546875 10.757813 C 12.625 11.113281 12.726563 11.441406 12.8125 11.613281 C 13.261719 12.285156 13.597656 11.722656 14.160156 11.386719 C 14.160156 11.386719 15.171875 12.175781 15.285156 12.285156 C 15.960938 12.734375 15.960938 13.410156 16.519531 13.972656 C 16.859375 14.308594 17.421875 14.871094 17.871094 14.871094 L 17.980469 14.757813 C 18.09375 14.648438 18.09375 14.421875 18.207031 14.085938 C 18.320313 13.523438 18.320313 12.847656 18.433594 12.285156 C 18.546875 11.726563 18.546875 11.050781 18.546875 10.601563 C 18.65625 10.039063 18.433594 9.363281 18.207031 8.914063 C 18.09375 8.578125 17.816406 7.53125 17.367188 7.304688 C 17.339844 7.296875 17.296875 7.273438 17.261719 7.257813 Z "/>
<path style=" fill:#98CCFD;" d="M 13.824219 30.152344 C 14.835938 30.492188 16.183594 30.492188 17.308594 30.265625 C 18.09375 30.152344 18.992188 29.253906 20.003906 29.367188 C 20.792969 29.480469 21.242188 30.152344 21.804688 30.714844 C 22.476563 31.390625 23.488281 31.503906 24.273438 31.839844 C 24.726563 32.0625 25.285156 32.402344 25.734375 32.625 C 25.847656 32.738281 26.636719 33.300781 26.746094 33.414063 C 26.800781 33.394531 26.871094 33.40625 26.949219 33.429688 C 27.878906 33.160156 28.78125 32.785156 29.644531 32.320313 C 29.65625 32.3125 29.660156 32.296875 29.667969 32.289063 C 29.78125 32.179688 29.554688 31.054688 29.445313 30.941406 C 29.445313 30.265625 29.21875 29.59375 29.332031 29.03125 C 29.445313 28.691406 29.558594 28.355469 29.554688 27.90625 C 29.554688 27.457031 29.21875 26.894531 28.992188 26.445313 C 28.882813 26.109375 28.546875 25.546875 28.097656 25.320313 C 27.8125 25.179688 27.644531 25.097656 27.308594 25.210938 C 26.410156 25.660156 25.734375 26.335938 24.609375 26.332031 C 24.273438 26.222656 24.050781 25.996094 23.710938 25.882813 C 23.261719 25.882813 22.589844 26.332031 22.140625 26.558594 L 20.679688 28.019531 L 19.890625 28.804688 C 19.441406 29.03125 18.765625 28.804688 18.203125 28.691406 C 18.09375 28.582031 17.867188 28.355469 17.644531 28.578125 C 17.304688 28.691406 17.304688 29.140625 16.96875 29.253906 C 16.746094 29.253906 16.632813 29.140625 16.519531 29.03125 C 16.183594 28.691406 16.070313 28.128906 16.070313 27.679688 C 16.183594 27.117188 16.855469 27.117188 17.195313 26.78125 C 17.304688 26.671875 17.304688 26.671875 17.53125 26.671875 C 17.980469 26.445313 18.542969 26.78125 18.878906 27.121094 L 19.105469 27.34375 C 19.21875 27.457031 19.328125 27.34375 19.441406 27.234375 C 18.992188 26.558594 18.429688 25.996094 17.980469 25.324219 C 17.308594 24.648438 17.304688 23.300781 17.644531 22.511719 C 17.757813 22.175781 18.09375 22.289063 18.207031 21.949219 C 18.65625 21.050781 19.667969 18.691406 18.429688 18.132813 C 17.417969 17.570313 15.960938 17.457031 15.171875 18.46875 C 15.058594 18.804688 15.058594 19.03125 14.949219 19.367188 C 14.835938 19.929688 14.835938 21.277344 14.496094 21.617188 C 13.824219 22.066406 13.035156 21.277344 12.8125 20.828125 C 12.476563 20.265625 12.027344 17.796875 12.925781 17.347656 C 13.148438 17.347656 13.597656 17.347656 13.824219 17.347656 C 14.160156 17.234375 14.496094 16.894531 14.835938 16.558594 C 14.945313 16.445313 15.058594 16.335938 15.058594 16.109375 C 15.058594 15.882813 15.058594 15.882813 14.949219 15.773438 C 14.609375 15.433594 13.9375 15.433594 13.488281 15.433594 C 13.039063 15.433594 12.476563 15.546875 12.027344 15.773438 C 11.09375 16.273438 9.832031 18.046875 9.011719 19.703125 C 8.925781 23.375 10.296875 27.074219 13.128906 29.910156 C 13.175781 29.957031 13.226563 30 13.277344 30.046875 C 13.46875 30.078125 13.65625 30.113281 13.824219 30.152344 Z "/>
<path style=" fill:#4788C7;" d="M 23.019531 7 C 26.46875 7 29.726563 8.363281 32.203125 10.835938 C 34.664063 13.296875 36.011719 16.570313 36 20.054688 C 35.988281 23.515625 34.640625 26.765625 32.203125 29.199219 C 29.753906 31.652344 26.488281 33 23.007813 33 C 19.542969 33 16.285156 31.652344 13.835938 29.203125 C 8.6875 24.054688 8.6875 15.984375 13.835938 10.835938 C 16.308594 8.363281 19.570313 7 23.019531 7 M 23.019531 6 C 19.449219 6 15.882813 7.375 13.128906 10.128906 C 7.621094 15.636719 7.621094 24.402344 13.128906 29.910156 C 15.867188 32.648438 19.441406 34 23.007813 34 C 26.605469 34 30.195313 32.625 32.910156 29.910156 C 38.3125 24.503906 38.414063 15.636719 32.910156 10.128906 C 30.15625 7.375 26.589844 6 23.019531 6 Z "/>
<path style=" fill:#B6DCFE;" d="M 8.5 3 C 8.5 3.828125 7.828125 4.5 7 4.5 C 6.171875 4.5 5.5 3.828125 5.5 3 C 5.5 2.171875 6.171875 1.5 7 1.5 C 7.828125 1.5 8.5 2.171875 8.5 3 Z "/>
<path style=" fill:#4788C7;" d="M 7 2 C 7.550781 2 8 2.449219 8 3 C 8 3.550781 7.550781 4 7 4 C 6.449219 4 6 3.550781 6 3 C 6 2.449219 6.449219 2 7 2 M 7 1 C 5.894531 1 5 1.894531 5 3 C 5 4.105469 5.894531 5 7 5 C 8.105469 5 9 4.105469 9 3 C 9 1.894531 8.105469 1 7 1 Z "/>
</g>
</svg>
