<?xml version="1.0"?>
<svg xmlns="http://www.w3.org/2000/svg" xmlns:xlink="http://www.w3.org/1999/xlink" version="1.1" viewBox="0 0 252 252" width="64px" height="64px"><g fill="none" fill-rule="nonzero" stroke="none" stroke-width="1" stroke-linecap="butt" stroke-linejoin="miter" stroke-miterlimit="10" stroke-dasharray="" stroke-dashoffset="0" font-family="none" font-weight="none" font-size="none" text-anchor="none" style="mix-blend-mode: normal"><path d="M0,252v-252h252v252z" fill="none"/><g><g id="surface1"><path d="M139.60898,236.25c8.9086,-6.27539 14.74102,-16.63594 14.74102,-28.35v-173.25h81.9v173.25c0,15.62695 -12.72305,28.35 -28.35,28.35z" fill="#b6dcfe"/><path d="M233.1,37.8v170.1c0,13.9043 -11.2957,25.2 -25.2,25.2h-60.04687c6.00469,-6.69375 9.64687,-15.52852 9.64687,-25.2v-170.1h75.6M239.4,31.5h-88.2v176.4c0,17.39883 -14.10117,31.5 -31.5,31.5h88.2c17.39883,0 31.5,-14.10117 31.5,-31.5z" fill="#4582ec"/><path d="M44.1,236.25c-15.62695,0 -28.35,-12.72305 -28.35,-28.35v-198.45h163.8v198.45c0,14.56875 11.04961,26.60273 25.2,28.17773v0.17227z" fill="#dff0fe"/><path d="M176.4,12.6v195.3c0,10.28672 4.9711,19.44141 12.62461,25.2h-144.92461c-13.9043,0 -25.2,-11.2957 -25.2,-25.2v-195.3h157.5M182.7,6.3h-170.1v201.6c0,17.39883 14.10117,31.5 31.5,31.5h163.8v-6.3c-13.9289,0 -25.2,-11.27109 -25.2,-25.2z" fill="#4582ec"/><path d="M211.05,69.3h-31.5c-1.72265,0 -3.15,-1.42734 -3.15,-3.15c0,-1.72265 1.42735,-3.15 3.15,-3.15h31.5c1.72266,0 3.15,1.42735 3.15,3.15c0,1.72266 -1.42734,3.15 -3.15,3.15z" fill="#4582ec"/><path d="M211.05,88.2h-31.5c-1.72265,0 -3.15,-1.42734 -3.15,-3.15c0,-1.72265 1.42735,-3.15 3.15,-3.15h31.5c1.72266,0 3.15,1.42735 3.15,3.15c0,1.72266 -1.42734,3.15 -3.15,3.15z" fill="#4582ec"/><path d="M211.05,107.1h-31.5c-1.72265,0 -3.15,-1.42734 -3.15,-3.15c0,-1.72265 1.42735,-3.15 3.15,-3.15h31.5c1.72266,0 3.15,1.42735 3.15,3.15c0,1.72266 -1.42734,3.15 -3.15,3.15z" fill="#4582ec"/><path d="M211.05,126h-31.5c-1.72265,0 -3.15,-1.42734 -3.15,-3.15c0,-1.72265 1.42735,-3.15 3.15,-3.15h31.5c1.72266,0 3.15,1.42735 3.15,3.15c0,1.72266 -1.42734,3.15 -3.15,3.15z" fill="#4582ec"/><path d="M211.05,144.9h-31.5c-1.72265,0 -3.15,-1.42734 -3.15,-3.15c0,-1.72265 1.42735,-3.15 3.15,-3.15h31.5c1.72266,0 3.15,1.42735 3.15,3.15c0,1.72266 -1.42734,3.15 -3.15,3.15z" fill="#4582ec"/><path d="M211.05,163.8h-31.5c-1.72265,0 -3.15,-1.42734 -3.15,-3.15c0,-1.72265 1.42735,-3.15 3.15,-3.15h31.5c1.72266,0 3.15,1.42735 3.15,3.15c0,1.72266 -1.42734,3.15 -3.15,3.15z" fill="#4582ec"/><path d="M211.05,182.7h-31.5c-1.72265,0 -3.15,-1.42734 -3.15,-3.15c0,-1.72265 1.42735,-3.15 3.15,-3.15h31.5c1.72266,0 3.15,1.42735 3.15,3.15c0,1.72266 -1.42734,3.15 -3.15,3.15z" fill="#4582ec"/><path d="M211.05,201.6h-31.5c-1.72265,0 -3.15,-1.42734 -3.15,-3.15c0,-1.72265 1.42735,-3.15 3.15,-3.15h31.5c1.72266,0 3.15,1.42735 3.15,3.15c0,1.72266 -1.42734,3.15 -3.15,3.15z" fill="#4582ec"/><path d="M148.05,75.6h-37.8c-1.72265,0 -3.15,-1.42734 -3.15,-3.15c0,-1.72265 1.42735,-3.15 3.15,-3.15h37.8c1.72266,0 3.15,1.42735 3.15,3.15c0,1.72266 -1.42734,3.15 -3.15,3.15z" fill="#4582ec"/><path d="M148.05,94.5h-37.8c-1.72265,0 -3.15,-1.42734 -3.15,-3.15c0,-1.72265 1.42735,-3.15 3.15,-3.15h37.8c1.72266,0 3.15,1.42735 3.15,3.15c0,1.72266 -1.42734,3.15 -3.15,3.15z" fill="#4582ec"/><path d="M148.05,113.4h-37.8c-1.72265,0 -3.15,-1.42734 -3.15,-3.15c0,-1.72265 1.42735,-3.15 3.15,-3.15h37.8c1.72266,0 3.15,1.42735 3.15,3.15c0,1.72266 -1.42734,3.15 -3.15,3.15z" fill="#4582ec"/><path d="M148.05,132.3h-37.8c-1.72265,0 -3.15,-1.42734 -3.15,-3.15c0,-1.72265 1.42735,-3.15 3.15,-3.15h37.8c1.72266,0 3.15,1.42735 3.15,3.15c0,1.72266 -1.42734,3.15 -3.15,3.15z" fill="#4582ec"/><path d="M148.05,151.2h-37.8c-1.72265,0 -3.15,-1.42734 -3.15,-3.15c0,-1.72265 1.42735,-3.15 3.15,-3.15h37.8c1.72266,0 3.15,1.42735 3.15,3.15c0,1.72266 -1.42734,3.15 -3.15,3.15z" fill="#4582ec"/><path d="M148.05,170.1h-37.8c-1.72265,0 -3.15,-1.42734 -3.15,-3.15c0,-1.72265 1.42735,-3.15 3.15,-3.15h37.8c1.72266,0 3.15,1.42735 3.15,3.15c0,1.72266 -1.42734,3.15 -3.15,3.15z" fill="#4582ec"/><path d="M148.05,189h-37.8c-1.72265,0 -3.15,-1.42734 -3.15,-3.15c0,-1.72265 1.42735,-3.15 3.15,-3.15h37.8c1.72266,0 3.15,1.42735 3.15,3.15c0,1.72266 -1.42734,3.15 -3.15,3.15z" fill="#4582ec"/><path d="M148.05,207.9h-37.8c-1.72265,0 -3.15,-1.42734 -3.15,-3.15c0,-1.72265 1.42735,-3.15 3.15,-3.15h37.8c1.72266,0 3.15,1.42735 3.15,3.15c0,1.72266 -1.42734,3.15 -3.15,3.15z" fill="#4582ec"/><path d="M85.05,75.6h-37.8c-1.72265,0 -3.15,-1.42734 -3.15,-3.15c0,-1.72265 1.42735,-3.15 3.15,-3.15h37.8c1.72266,0 3.15,1.42735 3.15,3.15c0,1.72266 -1.42734,3.15 -3.15,3.15z" fill="#4582ec"/><path d="M85.05,94.5h-37.8c-1.72265,0 -3.15,-1.42734 -3.15,-3.15c0,-1.72265 1.42735,-3.15 3.15,-3.15h37.8c1.72266,0 3.15,1.42735 3.15,3.15c0,1.72266 -1.42734,3.15 -3.15,3.15z" fill="#4582ec"/><path d="M85.05,113.4h-37.8c-1.72265,0 -3.15,-1.42734 -3.15,-3.15c0,-1.72265 1.42735,-3.15 3.15,-3.15h37.8c1.72266,0 3.15,1.42735 3.15,3.15c0,1.72266 -1.42734,3.15 -3.15,3.15z" fill="#4582ec"/><path d="M85.05,132.3h-37.8c-1.72265,0 -3.15,-1.42734 -3.15,-3.15c0,-1.72265 1.42735,-3.15 3.15,-3.15h37.8c1.72266,0 3.15,1.42735 3.15,3.15c0,1.72266 -1.42734,3.15 -3.15,3.15z" fill="#4582ec"/><path d="M85.05,151.2h-37.8c-1.72265,0 -3.15,-1.42734 -3.15,-3.15c0,-1.72265 1.42735,-3.15 3.15,-3.15h37.8c1.72266,0 3.15,1.42735 3.15,3.15c0,1.72266 -1.42734,3.15 -3.15,3.15z" fill="#4582ec"/><path d="M85.05,170.1h-37.8c-1.72265,0 -3.15,-1.42734 -3.15,-3.15c0,-1.72265 1.42735,-3.15 3.15,-3.15h37.8c1.72266,0 3.15,1.42735 3.15,3.15c0,1.72266 -1.42734,3.15 -3.15,3.15z" fill="#4582ec"/><path d="M85.05,189h-37.8c-1.72265,0 -3.15,-1.42734 -3.15,-3.15c0,-1.72265 1.42735,-3.15 3.15,-3.15h37.8c1.72266,0 3.15,1.42735 3.15,3.15c0,1.72266 -1.42734,3.15 -3.15,3.15z" fill="#4582ec"/><path d="M85.05,207.9h-37.8c-1.72265,0 -3.15,-1.42734 -3.15,-3.15c0,-1.72265 1.42735,-3.15 3.15,-3.15h37.8c1.72266,0 3.15,1.42735 3.15,3.15c0,1.72266 -1.42734,3.15 -3.15,3.15z" fill="#4582ec"/><path d="M144.9,50.4h-94.5c-3.46992,0 -6.3,-2.83008 -6.3,-6.3c0,-3.46992 2.83008,-6.3 6.3,-6.3h94.5c3.46992,0 6.3,2.83008 6.3,6.3c0,3.46992 -2.83008,6.3 -6.3,6.3z" fill="#4582ec"/></g></g></g></svg>
