<?xml version="1.0"?>
<svg xmlns="http://www.w3.org/2000/svg" xmlns:xlink="http://www.w3.org/1999/xlink" version="1.1" viewBox="0 0 252 252" width="64px" height="64px"><g fill="none" fill-rule="nonzero" stroke="none" stroke-width="1" stroke-linecap="none" stroke-linejoin="none" stroke-miterlimit="10" stroke-dasharray="" stroke-dashoffset="0" font-family="none" font-weight="none" font-size="none" text-anchor="none" style="mix-blend-mode: normal"><path d="M0,252v-252h252v252z" fill="none" stroke="none" stroke-linecap="butt" stroke-linejoin="miter"/><g><g id="surface1"><path d="M57.11836,107.59219c-6.66914,12.69844 -10.08984,26.82422 -9.9914,41.51602" fill="none" stroke="#4582ec" stroke-linecap="round" stroke-linejoin="round"/><path d="M117.46055,49.29258c-20.37656,3.64219 -39.03047,13.36289 -53.74687,28.22695c-1.59961,1.55039 -11.2957,11.12344 -17.89101,24.48632c-7.6043,15.40547 -11.39414,31.30312 -11.2957,47.20078" fill="none" stroke="#4582ec" stroke-linecap="round" stroke-linejoin="round"/><path d="M18.9,44.1v-25.2h25.2v-6.3h-31.5v31.5z" fill="#4582ec" stroke="none" stroke-linecap="butt" stroke-linejoin="miter"/><path d="M233.1,44.1h6.3v-31.5h-31.5v6.3h25.2z" fill="#4582ec" stroke="none" stroke-linecap="butt" stroke-linejoin="miter"/><path d="M233.1,207.9v25.2h-25.2v6.3h31.5v-31.5z" fill="#4582ec" stroke="none" stroke-linecap="butt" stroke-linejoin="miter"/><path d="M18.9,207.9h-6.3v31.5h31.5v-6.3h-25.2z" fill="#4582ec" stroke="none" stroke-linecap="butt" stroke-linejoin="miter"/><path d="M78.52852,120.95508c-4.13438,8.56406 -6.27539,18.01406 -6.20156,27.78398" fill="none" stroke="#4582ec" stroke-linecap="round" stroke-linejoin="round"/><path d="M198.76992,148.76367c-0.14765,-0.56601 -0.2707,-1.37813 -0.36914,-2.51015l-0.49219,-5.11875c-3.59297,-31.32773 -30.41719,-55.83867 -62.58164,-55.83867h-0.02461c-17.12812,0.12305 -33.02578,6.76757 -44.83828,18.75234" fill="none" stroke="#4582ec" stroke-linecap="round" stroke-linejoin="round"/><path d="M155.45742,75.62461c20.37656,5.68477 37.35703,19.71211 46.9793,38.14453c4.42969,8.51484 7.28438,17.96484 8.19492,27.98086" fill="none" stroke="#4582ec" stroke-linecap="round" stroke-linejoin="round"/><path d="M220.52461,125.60625c-1.64882,-6.07852 -3.96211,-11.98477 -6.93984,-17.66953c-11.32031,-21.70547 -31.27852,-37.89844 -54.75586,-44.44453" fill="none" stroke="#4582ec" stroke-linecap="round" stroke-linejoin="round"/><path d="M59.75156,147.13945c0.2707,-16.11914 5.48789,-31.32773 15.18398,-44.14922c1.99336,-2.6332 4.1836,-5.19257 6.5461,-7.6043c14.19961,-14.37188 33.27187,-22.36992 53.74688,-22.51758" fill="none" stroke="#4582ec" stroke-linecap="round" stroke-linejoin="round"/><path d="M61.30195,166.95c1.42734,9.40078 4.13437,21.41016 9.27773,34.50235" fill="none" stroke="#020080" stroke-linecap="round" stroke-linejoin="round"/><path d="M47.12695,149.1082c0.04922,5.61094 0.76289,20.64727 6.00469,39.69492" fill="none" stroke="#020080" stroke-linecap="round" stroke-linejoin="round"/><path d="M192.24844,81.28477c-15.43008,-13.09219 -35.36367,-21.01641 -57.01992,-21.01641h-0.09844c-23.82187,0.17227 -46.06875,9.49922 -62.60625,26.28281" fill="none" stroke="#4582ec" stroke-linecap="round" stroke-linejoin="round"/><path d="M34.52695,149.20664c0.04922,4.08515 0.39375,12.77227 2.31328,24.21562" fill="none" stroke="#020080" stroke-linecap="round" stroke-linejoin="round"/><path d="M200.39414,71.68711c-18.23555,-15.4793 -41.41758,-24.01875 -65.28867,-24.01875h-0.04922" fill="none" stroke="#4582ec" stroke-linecap="round" stroke-linejoin="round"/><path d="M34.52695,96.41953c7.25977,-14.6918 17.49727,-25.12618 20.475,-27.98086c20.9918,-21.2625 49.46484,-33.14882 79.98047,-33.37031c26.94727,0 53.05781,9.59766 73.55743,26.99649" fill="none" stroke="#4582ec" stroke-linecap="round" stroke-linejoin="miter"/><path d="M179.52539,209.05664c-8.6625,-2.16563 -15.62695,-5.80781 -21.21328,-10.28672" fill="none" stroke="#020080" stroke-linecap="round" stroke-linejoin="round"/><path d="M132.71836,186.02227c5.98008,11.8125 15.62695,23.625 31.08164,30.83555" fill="none" stroke="#020080" stroke-linecap="round" stroke-linejoin="round"/><path d="M148.05,148.09922c-0.07383,-6.86602 -5.73398,-12.47695 -12.6,-12.47695h-0.02461c-3.44531,0.02461 -6.59531,1.35352 -8.95781,3.76523c-2.3625,2.38711 -3.64219,5.56172 -3.61758,8.9332" fill="none" stroke="#4582ec" stroke-linecap="round" stroke-linejoin="round"/><path d="M185.82539,147.13945c0.63984,8.6625 4.03594,13.3875 10.16367,13.97813c5.70937,0.59062 11.00039,2.41172 15.62695,5.16797" fill="none" stroke="#020080" stroke-linecap="round" stroke-linejoin="round"/><path d="M135.45,123.02227h-0.02461c-6.86602,0.04922 -13.19063,2.73164 -17.91563,7.53047c-4.725,4.77422 -7.30898,11.12344 -7.25977,17.86641" fill="none" stroke="#4582ec" stroke-linecap="round" stroke-linejoin="round"/><path d="M160.65,147.97617c-0.04922,-5.61094 -1.96875,-10.80351 -5.16797,-14.98711" fill="none" stroke="#4582ec" stroke-linecap="round" stroke-linejoin="round"/><path d="M98.92969,138.37852c-0.86133,3.24844 -1.3043,6.64453 -1.27969,10.11445" fill="none" stroke="#4582ec" stroke-linecap="round" stroke-linejoin="round"/><path d="M173.25,147.85313c-0.22148,-20.64727 -17.17734,-37.43086 -37.8,-37.43086h-0.02461c-10.28672,0.07383 -19.81055,4.08515 -26.89805,11.27109" fill="none" stroke="#4582ec" stroke-linecap="round" stroke-linejoin="round"/><path d="M198.45,173.42227c-16.56211,0 -25.02773,-8.61328 -25.2,-25.56914" fill="none" stroke="#020080" stroke-linecap="round" stroke-linejoin="round"/><path d="M94.54922,192.98672c2.8793,7.16132 6.49687,14.42109 11.07422,21.41015" fill="none" stroke="#020080" stroke-linecap="round" stroke-linejoin="round"/><path d="M122.85,99.44648c-8.81015,2.26406 -16.8082,6.8168 -23.28047,13.3875c-9.45,9.59766 -14.61797,22.2961 -14.51953,35.75743" fill="none" stroke="#4582ec" stroke-linecap="round" stroke-linejoin="round"/><path d="M160.33008,104.44219c-7.3582,-4.2082 -15.84844,-6.61992 -24.88008,-6.61992" fill="none" stroke="#4582ec" stroke-linecap="round" stroke-linejoin="round"/><path d="M185.85,147.73008c-0.09844,-8.88398 -2.51015,-17.22656 -6.66914,-24.46172" fill="none" stroke="#4582ec" stroke-linecap="round" stroke-linejoin="round"/><path d="M162.17578,51.33516c26.87344,7.50586 49.66172,25.9875 62.58164,50.76914" fill="none" stroke="#4582ec" stroke-linecap="round" stroke-linejoin="round"/><path d="M72.32695,148.73906c0.14765,14.27344 4.10977,37.84922 15.72539,60.73594" fill="none" stroke="#020080" stroke-linecap="round" stroke-linejoin="round"/><path d="M85.05,148.59141c0.07383,7.99805 1.47656,19.26914 5.06953,31.59844" fill="none" stroke="#020080" stroke-linecap="round" stroke-linejoin="round"/><path d="M110.25,148.41914c0.07383,7.21055 1.52578,17.81719 5.38945,29.18672c4.9957,14.71641 14.02734,30.73711 29.28515,42.32813" fill="none" stroke="#020080" stroke-linecap="round" stroke-linejoin="round"/><path d="M97.65,148.49297c0.14766,16.38984 6.59531,48.0375 28.35,71.46562" fill="none" stroke="#020080" stroke-linecap="round" stroke-linejoin="round"/><path d="M149.8711,190.27969c-14.47031,-18.26015 -14.4457,-41.81133 -14.4457,-41.81133h0.02461" fill="none" stroke="#020080" stroke-linecap="round" stroke-linejoin="round"/><path d="M122.85,148.3207c0,0.29531 0.22148,11.51719 4.725,25.22461" fill="none" stroke="#020080" stroke-linecap="round" stroke-linejoin="round"/><path d="M192.22383,198.74531c-40.82695,-4.08515 -44.12461,-45.9457 -44.17383,-50.64609" fill="none" stroke="#020080" stroke-linecap="round" stroke-linejoin="round"/><path d="M198.45,186.02227c-34.72383,0 -37.70156,-29.11289 -37.8,-38.0461" fill="none" stroke="#020080" stroke-linecap="round" stroke-linejoin="round"/><path d="M218.48203,155.72813c-5.85703,-3.59297 -12.52618,-6.0293 -19.71211,-6.96445" fill="none" stroke="#020080" stroke-linecap="round" stroke-linejoin="round"/><path d="M233.1,157.5h-214.2c-3.46992,0 -6.3,-2.83008 -6.3,-6.3c0,-3.46992 2.83008,-6.3 6.3,-6.3h214.2c3.46992,0 6.3,2.83008 6.3,6.3c0,3.46992 -2.83008,6.3 -6.3,6.3z" fill="#4582ec" stroke="none" stroke-linecap="butt" stroke-linejoin="miter"/><path d="M236.25,37.8c1.72266,0 3.15,1.42735 3.15,3.15v6.3c0,1.72266 -1.42734,3.15 -3.15,3.15c-1.72265,0 -3.15,-1.42734 -3.15,-3.15v-6.3c0,-1.72265 1.42735,-3.15 3.15,-3.15z" fill="#4582ec" stroke="none" stroke-linecap="butt" stroke-linejoin="miter"/><path d="M236.25,201.6c1.72266,0 3.15,1.42735 3.15,3.15v6.3c0,1.72266 -1.42734,3.15 -3.15,3.15c-1.72265,0 -3.15,-1.42734 -3.15,-3.15v-6.3c0,-1.72265 1.42735,-3.15 3.15,-3.15z" fill="#4582ec" stroke="none" stroke-linecap="butt" stroke-linejoin="miter"/><path d="M15.75,201.6c1.72266,0 3.15,1.42735 3.15,3.15v6.3c0,1.72266 -1.42734,3.15 -3.15,3.15c-1.72265,0 -3.15,-1.42734 -3.15,-3.15v-6.3c0,-1.72265 1.42735,-3.15 3.15,-3.15z" fill="#4582ec" stroke="none" stroke-linecap="butt" stroke-linejoin="miter"/><path d="M15.75,37.8c1.72266,0 3.15,1.42735 3.15,3.15v6.3c0,1.72266 -1.42734,3.15 -3.15,3.15c-1.72265,0 -3.15,-1.42734 -3.15,-3.15v-6.3c0,-1.72265 1.42735,-3.15 3.15,-3.15z" fill="#4582ec" stroke="none" stroke-linecap="butt" stroke-linejoin="miter"/><path d="M40.95,12.6h6.3c1.72266,0 3.15,1.42735 3.15,3.15c0,1.72266 -1.42734,3.15 -3.15,3.15h-6.3c-1.72265,0 -3.15,-1.42734 -3.15,-3.15c0,-1.72265 1.42735,-3.15 3.15,-3.15z" fill="#4582ec" stroke="none" stroke-linecap="butt" stroke-linejoin="miter"/><path d="M204.75,12.6h6.3c1.72266,0 3.15,1.42735 3.15,3.15c0,1.72266 -1.42734,3.15 -3.15,3.15h-6.3c-1.72265,0 -3.15,-1.42734 -3.15,-3.15c0,-1.72265 1.42735,-3.15 3.15,-3.15z" fill="#4582ec" stroke="none" stroke-linecap="butt" stroke-linejoin="miter"/><path d="M40.95,233.1h6.3c1.72266,0 3.15,1.42735 3.15,3.15c0,1.72266 -1.42734,3.15 -3.15,3.15h-6.3c-1.72265,0 -3.15,-1.42734 -3.15,-3.15c0,-1.72265 1.42735,-3.15 3.15,-3.15z" fill="#4582ec" stroke="none" stroke-linecap="butt" stroke-linejoin="miter"/><path d="M204.75,233.1h6.3c1.72266,0 3.15,1.42735 3.15,3.15c0,1.72266 -1.42734,3.15 -3.15,3.15h-6.3c-1.72265,0 -3.15,-1.42734 -3.15,-3.15c0,-1.72265 1.42735,-3.15 3.15,-3.15z" fill="#4582ec" stroke="none" stroke-linecap="butt" stroke-linejoin="miter"/></g></g></g></svg>
