<?xml version="1.0"?>
<svg xmlns="http://www.w3.org/2000/svg" xmlns:xlink="http://www.w3.org/1999/xlink" version="1.1" viewBox="0 0 252 252" width="64px" height="64px"><g fill="none" fill-rule="nonzero" stroke="none" stroke-width="1" stroke-linecap="butt" stroke-linejoin="miter" stroke-miterlimit="10" stroke-dasharray="" stroke-dashoffset="0" font-family="none" font-weight="none" font-size="none" text-anchor="none" style="mix-blend-mode: normal"><path d="M0,252v-252h252v252z" fill="none"/><g><g id="surface1"><path d="M157.5,12.6c3.46992,0 6.3,2.83008 6.3,6.3v18.9h-75.6v-18.9c0,-3.46992 2.83008,-6.3 6.3,-6.3h63M157.5,6.3h-63c-6.96445,0 -12.6,5.63555 -12.6,12.6v25.2h88.2v-25.2c0,-6.96445 -5.63555,-12.6 -12.6,-12.6z" fill="#4582ec"/><path d="M9.45,97.65h233.1v126h-233.1z" fill="#dff0fe"/><path d="M239.4,100.8v119.7h-226.8v-119.7h226.8M245.7,94.5h-239.4v132.3h239.4z" fill="#4582ec"/><path d="M31.5,135.45c-12.15703,0 -22.05,-9.89297 -22.05,-22.05v-85.05h233.1v85.05c0,12.15703 -9.89297,22.05 -22.05,22.05z" fill="#dff0fe"/><path d="M239.4,31.5v81.9c0,10.40977 -8.49023,18.9 -18.9,18.9h-189c-10.40977,0 -18.9,-8.49023 -18.9,-18.9v-81.9h226.8M245.7,25.2h-239.4v88.2c0,13.92891 11.2711,25.2 25.2,25.2h189c13.92891,0 25.2,-11.27109 25.2,-25.2z" fill="#4582ec"/><path d="M138.6,107.1c0,6.96445 -5.63555,12.6 -12.6,12.6c-6.96445,0 -12.6,-5.63555 -12.6,-12.6c0,-6.96445 5.63555,-12.6 12.6,-12.6c6.96445,0 12.6,5.63555 12.6,12.6z" fill="#4582ec"/><path d="M176.4,31.5h-18.9v-3.15c0,-5.21719 4.23281,-9.45 9.45,-9.45c5.21719,0 9.45,4.23281 9.45,9.45z" fill="#4582ec"/><path d="M94.5,31.5h-18.9v-3.15c0,-5.21719 4.23281,-9.45 9.45,-9.45c5.21719,0 9.45,4.23281 9.45,9.45z" fill="#4582ec"/></g></g></g></svg>
