<?xml version="1.0" encoding="UTF-8"?>
<svg xmlns="http://www.w3.org/2000/svg" xmlns:xlink="http://www.w3.org/1999/xlink" viewBox="0 0 40 40" version="1.1" width="64px" height="64px">
<g id="surface1">
<path style="fill:none;stroke-width:1;stroke-linecap:round;stroke-linejoin:miter;stroke:#4788C7;stroke-opacity:1;stroke-miterlimit:10;" d="M 10.066406 19.078125 C 9.007813 21.09375 8.464844 23.335938 8.480469 25.667969 "/>
<path style="fill:none;stroke-width:1;stroke-linecap:round;stroke-linejoin:miter;stroke:#4788C7;stroke-opacity:1;stroke-miterlimit:10;" d="M 19.644531 9.824219 C 16.410156 10.402344 13.449219 11.945313 11.113281 14.304688 C 10.859375 14.550781 9.320313 16.070313 8.273438 18.191406 C 7.066406 20.636719 6.464844 23.160156 6.480469 25.683594 "/>
<path style="fill:none;stroke-width:1;stroke-linecap:round;stroke-linejoin:round;stroke:#4788C7;stroke-opacity:1;stroke-miterlimit:10;" d="M 4.621094 23.605469 C 4.878906 21.550781 5.503906 19.289063 6.480469 17.304688 "/>
<path style="fill:none;stroke-width:1;stroke-linecap:round;stroke-linejoin:miter;stroke:#4788C7;stroke-opacity:1;stroke-miterlimit:10;" d="M 13.464844 21.199219 C 12.808594 22.558594 12.46875 24.058594 12.480469 25.609375 "/>
<path style="fill:none;stroke-width:1;stroke-linecap:round;stroke-linejoin:miter;stroke:#4788C7;stroke-opacity:1;stroke-miterlimit:10;" d="M 32.550781 25.613281 C 32.527344 25.523438 32.507813 25.394531 32.492188 25.214844 L 32.414063 24.402344 C 31.84375 19.429688 27.585938 15.539063 22.480469 15.539063 L 22.476563 15.539063 C 19.757813 15.558594 17.234375 16.613281 15.359375 18.515625 "/>
<path style="fill:none;stroke-width:1;stroke-linecap:round;stroke-linejoin:miter;stroke:#4788C7;stroke-opacity:1;stroke-miterlimit:10;" d="M 25.675781 14.003906 C 29.15625 15.148438 31.949219 17.46875 33.132813 20.058594 C 33.765625 21.445313 34.289063 22.910156 34.433594 24.5 "/>
<path style="fill:none;stroke-width:1;stroke-linecap:round;stroke-linejoin:miter;stroke:#4788C7;stroke-opacity:1;stroke-miterlimit:10;" d="M 36.003906 21.9375 C 35.742188 20.972656 35.375 20.035156 34.902344 19.132813 C 33.105469 15.6875 29.9375 13.117188 26.210938 12.078125 "/>
<path style="fill:none;stroke-width:1;stroke-linecap:round;stroke-linejoin:miter;stroke:#4788C7;stroke-opacity:1;stroke-miterlimit:10;" d="M 10.484375 25.355469 C 10.527344 22.796875 11.355469 20.382813 12.894531 18.347656 C 13.210938 17.929688 13.558594 17.523438 13.933594 17.140625 C 16.1875 14.859375 19.214844 13.589844 22.464844 13.566406 "/>
<path style="fill:none;stroke-width:1;stroke-linecap:round;stroke-linejoin:miter;stroke:#4788C7;stroke-opacity:1;stroke-miterlimit:10;" d="M 10.730469 28.5 C 10.957031 29.992188 11.386719 31.898438 12.203125 33.976563 "/>
<path style="fill:none;stroke-width:1;stroke-linecap:round;stroke-linejoin:miter;stroke:#4788C7;stroke-opacity:1;stroke-miterlimit:10;" d="M 8.480469 25.667969 C 8.488281 26.558594 8.601563 28.945313 9.433594 31.96875 "/>
<path style="fill:none;stroke-width:1;stroke-linecap:round;stroke-linejoin:round;stroke:#4788C7;stroke-opacity:1;stroke-miterlimit:10;" d="M 31.515625 14.902344 C 29.066406 12.824219 25.902344 11.566406 22.464844 11.566406 L 22.449219 11.566406 C 18.667969 11.59375 15.136719 13.074219 12.511719 15.738281 "/>
<path style="fill:none;stroke-width:1;stroke-linecap:round;stroke-linejoin:miter;stroke:#4788C7;stroke-opacity:1;stroke-miterlimit:10;" d="M 6.480469 25.683594 C 6.488281 26.332031 6.542969 27.710938 6.847656 29.527344 "/>
<path style="fill:none;stroke-width:1;stroke-linecap:round;stroke-linejoin:round;stroke:#4788C7;stroke-opacity:1;stroke-miterlimit:10;" d="M 32.808594 13.378906 C 29.914063 10.921875 26.234375 9.566406 22.445313 9.566406 L 22.4375 9.566406 "/>
<path style="fill:none;stroke-width:1;stroke-linecap:round;stroke-linejoin:miter;stroke:#4788C7;stroke-opacity:1;stroke-miterlimit:10;" d="M 6.480469 17.304688 C 7.632813 14.972656 9.257813 13.316406 9.730469 12.863281 C 13.0625 9.488281 17.582031 7.601563 22.425781 7.566406 C 26.703125 7.566406 30.847656 9.089844 34.101563 11.851563 "/>
<path style="fill:none;stroke-width:1;stroke-linecap:round;stroke-linejoin:round;stroke:#4788C7;stroke-opacity:1;stroke-miterlimit:10;" d="M 13.117188 7.882813 C 12.941406 7.976563 12.773438 8.078125 12.601563 8.175781 C 12.257813 8.371094 11.921875 8.574219 11.589844 8.789063 C 11.40625 8.90625 11.230469 9.027344 11.050781 9.152344 C 10.722656 9.382813 10.402344 9.621094 10.089844 9.871094 C 9.941406 9.988281 9.789063 10.105469 9.644531 10.226563 C 9.203125 10.601563 8.773438 10.988281 8.363281 11.402344 C 8.355469 11.410156 8.351563 11.414063 8.34375 11.421875 C 8.300781 11.460938 8.238281 11.523438 8.179688 11.582031 C 8.160156 11.601563 8.152344 11.609375 8.132813 11.628906 C 7.433594 12.328125 5.851563 14.0625 4.6875 16.421875 "/>
<path style="fill:none;stroke-width:1;stroke-linecap:round;stroke-linejoin:round;stroke:#4788C7;stroke-opacity:1;stroke-miterlimit:10;" d="M 33 8.582031 C 29.84375 6.621094 26.175781 5.566406 22.410156 5.566406 C 21.234375 5.574219 20.078125 5.699219 18.945313 5.898438 L 18.941406 5.886719 C 18.863281 5.898438 18.792969 5.921875 18.714844 5.933594 C 18.472656 5.980469 18.230469 6.035156 17.988281 6.09375 C 17.65625 6.167969 17.328125 6.25 17 6.34375 "/>
<path style="fill:none;stroke-width:1;stroke-linecap:round;stroke-linejoin:round;stroke:#4788C7;stroke-opacity:1;stroke-miterlimit:10;" d="M 6.714844 10.21875 L 6.953125 9.980469 C 6.960938 9.976563 6.964844 9.972656 6.972656 9.964844 C 7.378906 9.558594 7.832031 9.140625 8.355469 8.699219 C 8.476563 8.597656 8.597656 8.503906 8.71875 8.40625 L 8.84375 8.308594 C 9.191406 8.03125 9.542969 7.769531 9.902344 7.515625 C 10.101563 7.378906 10.296875 7.242188 10.496094 7.113281 C 10.863281 6.875 11.238281 6.652344 11.617188 6.4375 L 11.785156 6.339844 C 11.914063 6.261719 12.046875 6.1875 12.179688 6.117188 C 12.722656 5.828125 13.273438 5.566406 13.824219 5.335938 C 13.996094 5.261719 14.175781 5.195313 14.351563 5.128906 L 14.542969 5.058594 C 14.898438 4.921875 15.257813 4.785156 15.625 4.667969 C 15.902344 4.578125 16.179688 4.496094 16.457031 4.417969 C 16.816406 4.316406 17.179688 4.226563 17.546875 4.140625 L 17.664063 4.113281 C 17.890625 4.0625 18.113281 4.011719 18.34375 3.96875 C 18.441406 3.945313 18.515625 3.929688 18.589844 3.917969 C 18.671875 3.902344 18.757813 3.890625 18.84375 3.886719 C 20.082031 3.679688 21.25 3.574219 22.398438 3.566406 C 25.097656 3.566406 27.753906 4.058594 30.238281 5 "/>
<path style="fill:none;stroke-width:1;stroke-linecap:round;stroke-linejoin:miter;stroke:#4788C7;stroke-opacity:1;stroke-miterlimit:10;" d="M 29.496094 35.183594 C 28.121094 34.839844 27.015625 34.261719 26.128906 33.550781 "/>
<path style="fill:none;stroke-width:1;stroke-linecap:round;stroke-linejoin:miter;stroke:#4788C7;stroke-opacity:1;stroke-miterlimit:10;" d="M 22.066406 31.527344 C 23.015625 33.402344 24.546875 35.277344 27 36.421875 "/>
<path style="fill:none;stroke-width:1;stroke-linecap:round;stroke-linejoin:miter;stroke:#4788C7;stroke-opacity:1;stroke-miterlimit:10;" d="M 24.5 25.507813 C 24.488281 24.417969 23.589844 23.527344 22.5 23.527344 L 22.496094 23.527344 C 21.949219 23.53125 21.449219 23.742188 21.074219 24.125 C 20.699219 24.503906 20.496094 25.007813 20.5 25.542969 "/>
<path style="fill:none;stroke-width:1;stroke-linecap:round;stroke-linejoin:miter;stroke:#4788C7;stroke-opacity:1;stroke-miterlimit:10;" d="M 30.496094 25.355469 C 30.597656 26.730469 31.136719 27.480469 32.109375 27.574219 C 33.015625 27.667969 33.855469 27.957031 34.589844 28.394531 "/>
<path style="fill:none;stroke-width:1;stroke-linecap:round;stroke-linejoin:miter;stroke:#4788C7;stroke-opacity:1;stroke-miterlimit:10;" d="M 22.5 21.527344 L 22.496094 21.527344 C 21.40625 21.535156 20.402344 21.960938 19.652344 22.722656 C 18.902344 23.480469 18.492188 24.488281 18.5 25.558594 "/>
<path style="fill:none;stroke-width:1;stroke-linecap:round;stroke-linejoin:miter;stroke:#4788C7;stroke-opacity:1;stroke-miterlimit:10;" d="M 26.5 25.488281 C 26.492188 24.597656 26.1875 23.773438 25.679688 23.109375 "/>
<path style="fill:none;stroke-width:1;stroke-linecap:round;stroke-linejoin:miter;stroke:#4788C7;stroke-opacity:1;stroke-miterlimit:10;" d="M 16.703125 23.964844 C 16.566406 24.480469 16.496094 25.019531 16.5 25.570313 "/>
<path style="fill:none;stroke-width:1;stroke-linecap:round;stroke-linejoin:miter;stroke:#4788C7;stroke-opacity:1;stroke-miterlimit:10;" d="M 28.5 25.46875 C 28.464844 22.191406 25.773438 19.527344 22.5 19.527344 L 22.496094 19.527344 C 20.863281 19.539063 19.351563 20.175781 18.226563 21.316406 "/>
<path style="fill:none;stroke-width:1;stroke-linecap:round;stroke-linejoin:miter;stroke:#4788C7;stroke-opacity:1;stroke-miterlimit:10;" d="M 32.5 29.527344 C 29.871094 29.527344 28.527344 28.160156 28.5 25.46875 "/>
<path style="fill:none;stroke-width:1;stroke-linecap:round;stroke-linejoin:miter;stroke:#4788C7;stroke-opacity:1;stroke-miterlimit:10;" d="M 16.007813 32.632813 C 16.464844 33.769531 17.039063 34.921875 17.765625 36.03125 "/>
<path style="fill:none;stroke-width:1;stroke-linecap:round;stroke-linejoin:miter;stroke:#4788C7;stroke-opacity:1;stroke-miterlimit:10;" d="M 20.5 17.785156 C 19.101563 18.144531 17.832031 18.867188 16.804688 19.910156 C 15.304688 21.433594 14.484375 23.449219 14.5 25.585938 "/>
<path style="fill:none;stroke-width:1;stroke-linecap:round;stroke-linejoin:miter;stroke:#4788C7;stroke-opacity:1;stroke-miterlimit:10;" d="M 26.449219 18.578125 C 25.28125 17.910156 23.933594 17.527344 22.5 17.527344 "/>
<path style="fill:none;stroke-width:1;stroke-linecap:round;stroke-linejoin:miter;stroke:#4788C7;stroke-opacity:1;stroke-miterlimit:10;" d="M 30.5 25.449219 C 30.484375 24.039063 30.101563 22.714844 29.441406 21.566406 "/>
<path style="fill:none;stroke-width:1;stroke-linecap:round;stroke-linejoin:miter;stroke:#4788C7;stroke-opacity:1;stroke-miterlimit:10;" d="M 26.742188 10.148438 C 31.007813 11.339844 34.625 14.273438 36.675781 18.207031 "/>
<path style="fill:none;stroke-width:1;stroke-linecap:round;stroke-linejoin:miter;stroke:#4788C7;stroke-opacity:1;stroke-miterlimit:10;" d="M 12.480469 25.609375 C 12.503906 27.875 13.132813 31.617188 14.976563 35.25 "/>
<path style="fill:none;stroke-width:1;stroke-linecap:round;stroke-linejoin:round;stroke:#4788C7;stroke-opacity:1;stroke-miterlimit:10;" d="M 10.972656 36.152344 C 8.714844 31.261719 8.492188 26.917969 8.480469 25.644531 "/>
<path style="fill:none;stroke-width:1;stroke-linecap:round;stroke-linejoin:round;stroke:#4788C7;stroke-opacity:1;stroke-miterlimit:10;" d="M 8.113281 34.417969 C 6.652344 30.242188 6.492188 26.765625 6.480469 25.660156 "/>
<path style="fill:none;stroke-width:1;stroke-linecap:round;stroke-linejoin:round;stroke:#4788C7;stroke-opacity:1;stroke-miterlimit:10;" d="M 5.726563 33.515625 C 5.019531 31.09375 4.710938 28.980469 4.578125 27.5 "/>
<path style="fill:none;stroke-width:1;stroke-linecap:round;stroke-linejoin:round;stroke:#4788C7;stroke-opacity:1;stroke-miterlimit:10;" d="M 13.195313 36.15625 C 12.355469 34.507813 11.773438 32.90625 11.371094 31.464844 "/>
<path style="fill:none;stroke-width:1;stroke-linecap:round;stroke-linejoin:miter;stroke:#4788C7;stroke-opacity:1;stroke-miterlimit:10;" d="M 14.5 25.585938 C 14.511719 26.855469 14.734375 28.644531 15.304688 30.601563 "/>
<path style="fill:none;stroke-width:1;stroke-linecap:round;stroke-linejoin:miter;stroke:#4788C7;stroke-opacity:1;stroke-miterlimit:10;" d="M 18.5 25.558594 C 18.511719 26.703125 18.742188 28.386719 19.355469 30.191406 C 20.148438 32.527344 21.582031 35.070313 24.003906 36.910156 "/>
<path style="fill:none;stroke-width:1;stroke-linecap:round;stroke-linejoin:miter;stroke:#4788C7;stroke-opacity:1;stroke-miterlimit:10;" d="M 16.5 25.570313 C 16.523438 28.171875 17.546875 33.195313 21 36.914063 "/>
<path style="fill:none;stroke-width:1;stroke-linecap:round;stroke-linejoin:miter;stroke:#4788C7;stroke-opacity:1;stroke-miterlimit:10;" d="M 24.789063 32.203125 C 22.492188 29.304688 22.496094 25.566406 22.496094 25.566406 C 22.496094 25.566406 22.5 25.566406 22.5 25.566406 "/>
<path style="fill:none;stroke-width:1;stroke-linecap:round;stroke-linejoin:miter;stroke:#4788C7;stroke-opacity:1;stroke-miterlimit:10;" d="M 20.5 25.542969 C 20.5 25.589844 20.535156 27.371094 21.25 29.546875 "/>
<path style="fill:none;stroke-width:1;stroke-linecap:round;stroke-linejoin:miter;stroke:#4788C7;stroke-opacity:1;stroke-miterlimit:10;" d="M 31.511719 33.546875 C 25.03125 32.898438 24.507813 26.253906 24.5 25.507813 "/>
<path style="fill:none;stroke-width:1;stroke-linecap:round;stroke-linejoin:miter;stroke:#4788C7;stroke-opacity:1;stroke-miterlimit:10;" d="M 32.5 31.527344 C 26.988281 31.527344 26.515625 26.90625 26.5 25.488281 "/>
<path style="fill:none;stroke-width:1;stroke-linecap:round;stroke-linejoin:miter;stroke:#4788C7;stroke-opacity:1;stroke-miterlimit:10;" d="M 35.679688 26.71875 C 34.75 26.148438 33.691406 25.761719 32.550781 25.613281 "/>
</g>
</svg>
