<?xml version="1.0" encoding="utf-8"?>
<!-- Generator: Adobe Illustrator 22.1.0, SVG Export Plug-In . SVG Version: 6.00 Build 0)  -->
<svg version="1.1" id="Layer_1" xmlns="http://www.w3.org/2000/svg" xmlns:xlink="http://www.w3.org/1999/xlink" x="0px" y="0px"
	 width="64px" height="64px" viewBox="0 0 64 64" style="enable-background:new 0 0 64 64;" xml:space="preserve">
<style type="text/css">
	.st0{fill:none;}
	.st1{fill:url(#SVGID_1_);}
	.st2{fill:url(#SVGID_2_);}
	.st3{fill:#4582EC;}
	.st4{fill:url(#SVGID_3_);}
	.st5{fill:url(#SVGID_4_);}
	.st6{fill:#98CCFD;}
</style>
<g>
	<path class="st0" d="M0,64h64V0H0V64z M18.4,40h2.4v-1.9l2.2,1c1.6,0.7,3.3,0.9,6.6,0.9c1.9,0,3.8-1.1,4-1.6c0-0.8-1.9-1.6-3.8-2.4
		c-3.8-1.6-9-3.9-9-10.4c0-0.6,0-1.1,0.1-1.6h-2.5h-0.8h-3.2H3.2v-9.6h1.6h12.8h5.6h5.6V9.6V8h1.6H32h1.6c0,0,0,1.6,0,1.6v4.8H44h4
		v-8l14.4,12.8L48,32v-8h-4h-2.4v2.8l-2.4-1.5c-1.5-0.9-3.5-1.4-6-1.4c-1,0-2.8,0.2-2.8,1.6c0,1,1.2,1.6,3.9,2.6
		c3.8,1.5,8.9,3.5,8.9,10.4c0,0.5-0.1,1-0.1,1.4h2.5h0.8h3.2h11.2v9.6h-1.6H46.4h-7.2h-5.6v4.8V56H32h-1.6h-1.6v-1.6v-4.8H18.4H16v8
		L1.6,44.8L16,32v8H18.4z"/>
	<linearGradient id="SVGID_1_" gradientUnits="userSpaceOnUse" x1="3.2" y1="44.8" x2="60.8" y2="44.8">
		<stop  offset="0" style="stop-color:#FFFFFF"/>
		<stop  offset="1" style="stop-color:#DFF0FE"/>
	</linearGradient>
	<path class="st1" d="M19.2,40.8c0,0.4-0.4,0.8-0.8,0.8h-4V40v-4.4L4,44.8L14.4,54v-4.4V48h4c0.4,0,0.8,0.4,0.8,0.8
		s-0.4,0.8-0.8,0.8h10.4v-0.1c-2-0.1-5.1-0.5-7-1.2l-1-0.4v-1.1v-6.3V40h-2.4C18.8,40,19.2,40.4,19.2,40.8z"/>
	<linearGradient id="SVGID_2_" gradientUnits="userSpaceOnUse" x1="3.2" y1="44.8" x2="60.8" y2="44.8">
		<stop  offset="0" style="stop-color:#FFFFFF"/>
		<stop  offset="1" style="stop-color:#DFF0FE"/>
	</linearGradient>
	<path class="st2" d="M33.6,49.3v0.3h5.6c-0.4,0-0.8-0.4-0.8-0.8s0.4-0.8,0.8-0.8h20v-6.4H45.6c-0.4,0-0.8-0.4-0.8-0.8
		s0.4-0.8,0.8-0.8h-2.5C42.3,44.8,37.5,48.1,33.6,49.3z"/>
	<polygon class="st3" points="1.6,44.8 16,57.6 16,49.6 14.4,49.6 14.4,54 14.4,54.4 3.2,44.8 14.4,35.2 14.4,35.6 14.4,40 16,40 
		16,32 	"/>
	<path class="st3" d="M14.4,41.6h4c-0.4,0-0.8-0.4-0.8-0.8S18,40,18.4,40H16h-1.6V41.6z"/>
	<path class="st3" d="M17.6,48.8c0-0.4,0.4-0.8,0.8-0.8h-4v1.6H16h2.4C18,49.6,17.6,49.2,17.6,48.8z"/>
	<polygon class="st3" points="14.4,35.6 14.4,35.2 3.2,44.8 14.4,54.4 14.4,54 4,44.8 	"/>
	<path class="st3" d="M19.2,48.8c0-0.4-0.4-0.8-0.8-0.8v1.6C18.8,49.6,19.2,49.2,19.2,48.8z"/>
	<path class="st3" d="M17.6,48.8c0,0.4,0.4,0.8,0.8,0.8V48C18,48,17.6,48.4,17.6,48.8z"/>
	<path class="st3" d="M19.2,40.8c0-0.4-0.4-0.8-0.8-0.8v1.6C18.8,41.6,19.2,41.2,19.2,40.8z"/>
	<path class="st3" d="M17.6,40.8c0,0.4,0.4,0.8,0.8,0.8V40C18,40,17.6,40.4,17.6,40.8z"/>
	<linearGradient id="SVGID_3_" gradientUnits="userSpaceOnUse" x1="3.2" y1="19.2" x2="60.8" y2="19.2">
		<stop  offset="0" style="stop-color:#DFF0FE"/>
		<stop  offset="1" style="stop-color:#FFFFFF"/>
	</linearGradient>
	<path class="st4" d="M28.8,14.7v-0.3h-5.6c0.4,0,0.8,0.4,0.8,0.8c0,0.4-0.4,0.8-0.8,0.8H4.8v6.4h13.6c0.4,0,0.8,0.4,0.8,0.8
		c0,0.4-0.4,0.8-0.8,0.8h2.5C21.6,18.3,25.7,15.6,28.8,14.7z"/>
	<linearGradient id="SVGID_4_" gradientUnits="userSpaceOnUse" x1="3.2" y1="19.2" x2="60.8" y2="19.2">
		<stop  offset="0" style="stop-color:#DFF0FE"/>
		<stop  offset="1" style="stop-color:#FFFFFF"/>
	</linearGradient>
	<path class="st5" d="M40.8,16.2l0.8,0.5v0.9V24H44c-0.4,0-0.8-0.4-0.8-0.8c0-0.4,0.4-0.8,0.8-0.8h5.6v6L60,19.2L49.6,10v4.4V16H44
		c-0.4,0-0.8-0.4-0.8-0.8c0-0.4,0.4-0.8,0.8-0.8H33.6v0.1C36,14.8,39.3,15.4,40.8,16.2z"/>
	<polygon class="st3" points="49.6,10 49.6,9.6 60.8,19.2 49.6,28.8 49.6,24 48,24 48,32 62.4,19.2 48,6.4 48,14.4 49.6,14.4 	"/>
	<path class="st3" d="M49.6,28.8l11.2-9.6L49.6,9.6V10L60,19.2l-10.4,9.2v-6H44c0.4,0,0.8,0.4,0.8,0.8c0,0.4-0.4,0.8-0.8,0.8h4h1.6
		V28.8z"/>
	<path class="st3" d="M44.8,15.2c0,0.4-0.4,0.8-0.8,0.8h5.6v-1.6H48h-4C44.4,14.4,44.8,14.8,44.8,15.2z"/>
	<rect x="30.4" y="9.6" class="st6" width="1.6" height="4.8"/>
	<path class="st6" d="M41.6,38.6c0-10-12.8-7.7-12.8-13c0-0.6,0.2-1.1,0.5-1.6h-6.8c-0.1,0.5-0.1,1-0.1,1.6
		c0,9.3,12.8,8.3,12.8,12.8c0,0.6-0.4,1.1-0.9,1.6h7.2C41.5,39.5,41.6,39.1,41.6,38.6z"/>
	<rect x="30.4" y="49.6" class="st6" width="1.6" height="4.8"/>
	<path class="st6" d="M41.4,40h-7.2c-1.1,0.9-3.1,1.6-4.7,1.6c-3.5,0-5.4-0.3-7.2-1.1v6.3c1.9,0.8,6,1.1,8,1.2v1.6H32V48
		C35.7,47.4,40.5,44.4,41.4,40z"/>
	<path class="st6" d="M33.2,22.4c2.4,0,4.8,0.4,6.8,1.6v-6.4c-1.4-0.8-5.3-1.4-8-1.6v-1.6h-1.6V16c-2.2,0.3-7.1,2.1-7.9,8h6.8
		C29.9,23.1,31.1,22.4,33.2,22.4z"/>
	<path class="st3" d="M40.8,25.4l-1.2-0.7c-0.4-0.3-0.9-0.5-1.4-0.7h-4.9c2.5,0,4.5,0.5,6,1.4l2.4,1.5V24h-0.8V25.4z"/>
	<path class="st3" d="M29.6,25.6c0,1.6,1.7,2.3,4.4,3.3c3.6,1.4,8.4,3.3,8.4,9.6c0,0.5-0.1,1-0.1,1.4h0.8c0.1-0.5,0.1-0.9,0.1-1.4
		c0-6.9-5.2-8.9-8.9-10.4c-2.6-1-3.9-1.6-3.9-2.6c0-1.4,1.8-1.6,2.8-1.6h-2.9C29.9,24.4,29.6,24.9,29.6,25.6z"/>
	<path class="st3" d="M21.6,39.3l1.1,0.5c0.2,0.1,0.3,0.1,0.5,0.2h6.4c-3.3,0-5-0.2-6.6-0.9l-2.2-1V40h0.8V39.3z"/>
	<polygon class="st3" points="32.8,55.2 29.6,55.2 29.6,49.6 28.8,49.6 28.8,54.4 28.8,56 30.4,56 32,56 33.6,56 33.6,54.4 
		33.6,49.6 32.8,49.6 	"/>
	<path class="st3" d="M34.4,38.4c0-1.3-2-2.2-4.2-3.2c-3.6-1.6-8.6-3.7-8.6-9.7c0-0.6,0-1.1,0.1-1.6h-0.8c-0.1,0.5-0.1,1-0.1,1.6
		c0,6.5,5.2,8.7,9,10.4c1.8,0.8,3.8,1.6,3.8,2.4c-0.2,0.5-2.1,1.6-4,1.6h3.2C33.7,39.5,34.4,38.9,34.4,38.4z"/>
	<polygon class="st3" points="29.6,8.8 32.8,8.8 32.8,14.4 33.6,14.4 33.6,9.6 33.6,8 32,8 30.4,8 28.8,8 28.8,9.6 28.8,14.4 
		29.6,14.4 	"/>
	<path class="st3" d="M29.6,40.8c1.1,0,2.3-0.3,3.2-0.8h-3.2h-6.4C24.8,40.6,26.5,40.8,29.6,40.8z"/>
	<path class="st3" d="M20.8,46.8v1.1l1,0.4c1.8,0.7,5,1,7,1.2v0.1h0.8v-0.8c-1.7-0.1-5.5-0.4-7.5-1.2l-0.5-0.2V40h-0.8v0.5V46.8z"/>
	<path class="st3" d="M32.8,48.7v0.9h0.8v-0.3c3.9-1.1,8.7-4.4,9.5-9.3h-0.8C41.4,44.7,36.5,47.8,32.8,48.7z"/>
	<path class="st3" d="M32.8,15.3c2.5,0.2,6.1,0.8,7.6,1.6l0.4,0.2V24h0.8v-6.4v-0.9l-0.8-0.5c-1.5-0.8-4.7-1.4-7.2-1.6v-0.1h-0.8
		V15.3z"/>
	<path class="st3" d="M33.2,23.2c-1.3,0-2.3,0.3-2.9,0.8h2.9h4.9C36.8,23.5,35.1,23.2,33.2,23.2z"/>
	<path class="st3" d="M29.6,15.3v-0.9h-0.8v0.3c-3.1,0.9-7.2,3.6-7.9,9.3h0.8C22.4,18.4,26.6,16,29.6,15.3z"/>
	<polygon class="st3" points="30.4,9.6 32,9.6 32,14.4 32.8,14.4 32.8,8.8 29.6,8.8 29.6,14.4 30.4,14.4 	"/>
	<polygon class="st3" points="32.8,55.2 32.8,49.6 32,49.6 32,54.4 30.4,54.4 30.4,49.6 29.6,49.6 29.6,55.2 	"/>
	<path class="st3" d="M22.7,39.8l-1.1-0.5V40h1.6C23,39.9,22.9,39.9,22.7,39.8z"/>
	<path class="st3" d="M28.8,25.6c0,5.2,12.8,3,12.8,13c0,0.5-0.1,1-0.2,1.4h0.8c0.1-0.5,0.1-0.9,0.1-1.4c0-6.4-4.9-8.2-8.4-9.6
		c-2.7-1-4.4-1.8-4.4-3.3c0-0.7,0.3-1.2,0.7-1.6h-1.1C29,24.5,28.8,25,28.8,25.6z"/>
	<path class="st3" d="M38.1,24c0.5,0.2,1,0.4,1.4,0.7l1.2,0.7V24H40H38.1z"/>
	<path class="st3" d="M35.2,38.4c0-4.5-12.8-3.6-12.8-12.8c0-0.6,0-1.1,0.1-1.6h-0.8c-0.1,0.5-0.1,1-0.1,1.6c0,6,4.9,8.1,8.6,9.7
		c2.3,1,4.2,1.8,4.2,3.2c0,0.5-0.7,1.1-1.6,1.6h1.5C34.8,39.5,35.2,39,35.2,38.4z"/>
	<path class="st3" d="M30.4,48c-2-0.1-6.1-0.4-8-1.2v-6.3c1.8,0.8,3.7,1.1,7.2,1.1c1.6,0,3.5-0.7,4.7-1.6h-1.5
		c-0.9,0.5-2.1,0.8-3.2,0.8c-3.1,0-4.8-0.2-6.4-0.8h-1.6v7.4l0.5,0.2c2,0.8,5.8,1.1,7.5,1.2v0.8h0.8V48z"/>
	<path class="st3" d="M32,48v1.6h0.8v-0.9c3.7-0.9,8.6-4,9.5-8.7h-0.8C40.5,44.4,35.7,47.4,32,48z"/>
	<path class="st3" d="M32,16c2.7,0.2,6.6,0.8,8,1.6V24h0.8v-6.9l-0.4-0.2c-1.5-0.8-5.1-1.4-7.6-1.6v-0.9H32V16z"/>
	<path class="st3" d="M30.4,16v-1.6h-0.8v0.9c-3,0.6-7.2,3-7.9,8.7h0.8C23.3,18.1,28.2,16.3,30.4,16z"/>
	<path class="st3" d="M33.2,22.4c-2.1,0-3.3,0.7-3.9,1.6h1.1c0.6-0.5,1.6-0.8,2.9-0.8c1.9,0,3.6,0.3,4.9,0.8H40
		C38,22.8,35.6,22.4,33.2,22.4z"/>
	<path class="st3" d="M43.2,15.2c0,0.4,0.4,0.8,0.8,0.8v-1.6C43.6,14.4,43.2,14.8,43.2,15.2z"/>
	<path class="st3" d="M44.8,15.2c0-0.4-0.4-0.8-0.8-0.8V16C44.4,16,44.8,15.6,44.8,15.2z"/>
	<path class="st3" d="M43.2,23.2c0,0.4,0.4,0.8,0.8,0.8v-1.6C43.6,22.4,43.2,22.8,43.2,23.2z"/>
	<path class="st3" d="M44.8,23.2c0-0.4-0.4-0.8-0.8-0.8V24C44.4,24,44.8,23.6,44.8,23.2z"/>
	<path class="st3" d="M46.4,40.8c0,0.4-0.4,0.8-0.8,0.8h13.6V48h-20c0.4,0,0.8,0.4,0.8,0.8s-0.4,0.8-0.8,0.8h7.2h12.8h1.6V40H49.6
		h-3.2h-0.8C46,40,46.4,40.4,46.4,40.8z"/>
	<path class="st3" d="M44.8,40.8c0,0.4,0.4,0.8,0.8,0.8V40C45.2,40,44.8,40.4,44.8,40.8z"/>
	<path class="st3" d="M46.4,40.8c0-0.4-0.4-0.8-0.8-0.8v1.6C46,41.6,46.4,41.2,46.4,40.8z"/>
	<path class="st3" d="M38.4,48.8c0,0.4,0.4,0.8,0.8,0.8V48C38.8,48,38.4,48.4,38.4,48.8z"/>
	<path class="st3" d="M40,48.8c0-0.4-0.4-0.8-0.8-0.8v1.6C39.6,49.6,40,49.2,40,48.8z"/>
	<path class="st3" d="M17.6,23.2c0-0.4,0.4-0.8,0.8-0.8H4.8V16h18.4c-0.4,0-0.8-0.4-0.8-0.8c0-0.4,0.4-0.8,0.8-0.8h-5.6H4.8H3.2V24
		h11.2h3.2h0.8C18,24,17.6,23.6,17.6,23.2z"/>
	<path class="st3" d="M19.2,23.2c0-0.4-0.4-0.8-0.8-0.8V24C18.8,24,19.2,23.6,19.2,23.2z"/>
	<path class="st3" d="M17.6,23.2c0,0.4,0.4,0.8,0.8,0.8v-1.6C18,22.4,17.6,22.8,17.6,23.2z"/>
	<path class="st3" d="M24,15.2c0-0.4-0.4-0.8-0.8-0.8V16C23.6,16,24,15.6,24,15.2z"/>
	<path class="st3" d="M22.4,15.2c0,0.4,0.4,0.8,0.8,0.8v-1.6C22.8,14.4,22.4,14.8,22.4,15.2z"/>
</g>
</svg>
