<?xml version="1.0" encoding="utf-8"?>
<!-- Generator: Adobe Illustrator 22.1.0, SVG Export Plug-In . SVG Version: 6.00 Build 0)  -->
<svg version="1.1" id="Layer_1" xmlns="http://www.w3.org/2000/svg" xmlns:xlink="http://www.w3.org/1999/xlink" x="0px" y="0px"
	 width="108.3px" height="17.5px" viewBox="0 0 108.3 17.5" style="enable-background:new 0 0 108.3 17.5;" xml:space="preserve">
<style type="text/css">
	.st0{fill:#FFFFFF;}
</style>
<title>Group 2</title>
<desc>Created with Sketch.</desc>
<g>
	<path class="st0" d="M11.8,15.4l0.1,0.1c-1.1,1.3-2.9,2-5,2c-4.2,0-6.9-2.7-6.9-6.3c0-3.4,2.6-6.3,6-6.4C9.7,4.6,12.7,7,12.7,11
		l-9.6,1.9C3.8,14.3,5.1,15,7,15c0.7,0,1.3-0.1,1.9-0.3C9.9,14.3,11.1,14.5,11.8,15.4z M2.8,10.9L2.8,10.9l7.1-1.3
		C9.5,8.1,8.2,7.1,6.4,7.1C4.3,7.1,2.8,8.6,2.8,10.9z"/>
	<path class="st0" d="M17.8,17.3h-2.9v-15C14.8,1,15.8,0,16.9,0h0.8v17.3H17.8z"/>
	<path class="st0" d="M31.4,15l0.4,0.4c-1.1,1.3-2.9,2-5,2c-4.2,0-6.9-2.7-6.9-6.4c0-3.4,2.8-6.2,6.2-6.3c3.6-0.1,6.5,2.2,6.5,6.2
		L23,12.8c0.6,1.4,2,2.2,3.8,2.2c0.8,0,1.5-0.2,2.2-0.5C29.8,14.1,30.8,14.4,31.4,15z M22.7,10.9L22.7,10.9l7.1-1.3
		c-0.4-1.5-1.7-2.5-3.5-2.5C24.2,7.1,22.7,8.6,22.7,10.9z"/>
	<path class="st0" d="M55.6,10.2v7.1h-0.9c-1.1,0-2-0.9-2-2v-4.8c0-2.2-1-3.3-2.8-3.3c-1.9,0-3.2,1.3-3.2,3.7v6.3h-0.9
		c-1.1,0-2-0.9-2-2v-4.8c0-2.2-1-3.3-2.8-3.3c-1.9,0-3.2,1.3-3.2,3.7v6.3h-2.9V4.9h2.8v1.6c0.9-1.1,2.4-1.7,4.1-1.7
		c1.8,0,3.3,0.7,4.2,2.1c1-1.3,2.7-2.1,4.7-2.1C53.5,4.7,55.6,6.4,55.6,10.2z"/>
	<path class="st0" d="M69.2,15l0.4,0.4c-1.1,1.3-2.9,2-5,2c-4.2,0-6.9-2.7-6.9-6.4c0-3.4,2.8-6.2,6.2-6.3c3.6-0.1,6.5,2.2,6.5,6.2
		l-9.6,1.9c0.6,1.4,2,2.2,3.8,2.2c0.8,0,1.5-0.2,2.2-0.5C67.6,14.1,68.6,14.4,69.2,15z M60.5,10.9L60.5,10.9l7.1-1.3
		c-0.4-1.5-1.7-2.5-3.5-2.5C62,7.1,60.5,8.6,60.5,10.9z"/>
	<path class="st0" d="M84.8,10.2v7.1h-0.9c-1.1,0-2-0.9-2-2v-4.8c0-2.2-1.1-3.3-3-3.3c-2.1,0-3.5,1.3-3.5,3.8v6.3h-2.9V4.9h2.8v1.6
		c1-1.1,2.5-1.8,4.3-1.8C82.5,4.7,84.8,6.4,84.8,10.2z"/>
	<path class="st0" d="M94.1,16.7c-0.7,0.6-1.8,0.8-2.8,0.8c-2.7,0-4.3-1.4-4.3-4.2V3.2c0-1.1,0.9-2,2-2h0.9l0,0v3.7l0,0h4.2l0,0v0.3
		c0,1.1-0.9,2-2,2h-2.2l0,0v5.9c0,1.2,0.6,1.9,1.7,1.9c0.2,0,0.7-0.1,0.8,0c0.9,0.1,1.1,0.3,1.4,1L94.1,16.7z"/>
	<path class="st0" d="M95.3,16.1l0.2-0.5c0.5-0.9,1.6-1.3,2.6-1c0.9,0.3,1.9,0.5,2.8,0.5c1.8,0,2.6-0.6,2.6-1.5c0-2.4-8.2,0-8.2-5
		c0-2.4,2.3-3.9,5.6-3.9c1.7,0,4,0.4,5.1,1.1l-0.3,0.6c-0.4,0.9-1.4,1.3-2.3,1c-0.7-0.2-1.8-0.3-2.5-0.3c-1.8,0-2.6,0.8-2.6,1.6
		c0,2.5,8.1-0.1,8.1,4.8c0,2.3-2.1,4-5.7,4C98.7,17.5,96.4,16.9,95.3,16.1z"/>
	<g>
		<path class="st0" d="M105.6,2.4H105V2.2h1.4v0.2h-0.6v1.4h-0.2C105.6,3.8,105.6,2.4,105.6,2.4z"/>
		<path class="st0" d="M108.1,3.8V2.6l-0.6,1h-0.1l-0.6-1v1.2h-0.2V2.2h0.2l0.7,1.2l0.7-1.2h0.2v1.7h-0.3V3.8z"/>
	</g>
</g>
</svg>
